<?xml version="1.0" encoding="UTF-8"?>
<svg id="Layer_1" xmlns="http://www.w3.org/2000/svg" version="1.1" viewBox="0 0 112 64">
  <!-- Generator: Adobe Illustrator 29.3.1, SVG Export Plug-In . SVG Version: 2.1.0 Build 151)  -->
  <path d="M88,40v-16c0-13.3-10.7-24-24-24h-16c-13.3,0-24,10.7-24,24v16c0,13.3-10.7,24-24,24h112c-13.3,0-24-10.7-24-24Z" fill="#fff"/>
  <path d="M350-3h-16c-13.3,0-24,10.7-24,24v16c0,13.3,10.7,24,24,24h16c13.3,0,24,10.7,24,24V-27c0,13.3-10.7,24-24,24Z" fill="#e08585"/>
</svg>