<svg width="188" height="184" viewBox="0 0 188 184" fill="none" xmlns="http://www.w3.org/2000/svg">
<path d="M111.703 61.1039C112.726 62.1269 114.115 62.702 115.562 62.702L129.1 62.7074C131.677 62.7084 133.765 64.7974 133.765 67.374V81.3311C133.765 83.9093 131.674 85.999 129.096 85.9978L115.133 85.9911C112.555 85.9899 110.466 83.8989 110.468 81.3211L110.478 67.7641C110.478 66.521 109.759 64.7848 108.88 63.9057L108.691 63.7171C107.668 62.6935 106.28 62.1184 104.833 62.1184H73.6154C72.5689 62.1184 71.565 62.5346 70.8252 63.2744C70.1216 63.978 69.7262 64.932 69.7262 65.9274V72.0382C69.7262 74.6155 67.6368 76.7048 65.0595 76.7048H59.553C56.9771 76.7048 54.8883 74.6177 54.8863 72.0418L54.882 66.5401C54.8799 63.9613 56.9699 61.8697 59.5486 61.8697H65.5781C66.6304 61.8697 67.6391 61.452 68.3826 60.7085L68.5533 60.5379C69.2542 59.8369 69.6481 58.8861 69.6481 57.8949L69.6407 26.3294C69.6401 23.7517 71.7296 21.6617 74.3074 21.6617H105.417C107.542 21.6617 109.263 19.9398 109.263 17.8155V6.66764C109.263 4.08995 111.353 2.00046 113.931 2.00098L124.863 2.00316C127.44 2.00368 129.529 4.09417 129.528 6.67198L129.523 17.6019C129.522 20.1735 127.441 22.2593 124.87 22.2608C124.421 22.261 123.953 22.2612 123.472 22.2612H114.156C111.919 22.2612 110.105 23.7875 110.105 26.3114V57.2455C110.105 58.6927 110.68 60.0803 111.703 61.1039Z" fill="#0F0F0F"/>
<path d="M182.414 113.595V104.131H188V105.209H183.597V108.18H187.54V109.258H183.597V112.518H188V113.595H182.414Z" fill="#0F0F0F"/>
<path d="M172.758 104.131H175.781C176.21 104.131 176.6 104.197 176.951 104.329C177.301 104.46 177.599 104.648 177.844 104.894C178.099 105.139 178.291 105.433 178.423 105.775C178.563 106.108 178.633 106.48 178.633 106.892C178.633 107.549 178.462 108.11 178.12 108.574C177.787 109.03 177.332 109.345 176.753 109.521L178.765 113.595H177.371L175.531 109.652H173.941V113.595H172.758V104.131ZM173.941 108.601H175.781C176.28 108.601 176.675 108.447 176.964 108.141C177.262 107.825 177.411 107.409 177.411 106.892C177.411 106.375 177.262 105.963 176.964 105.656C176.666 105.341 176.271 105.183 175.781 105.183H173.941V108.601Z" fill="#0F0F0F"/>
<path d="M165.139 104.131H166.795L169.293 113.595H168.031L167.373 110.927H164.469L163.798 113.595H162.563L165.139 104.131ZM164.718 109.941H167.137L166.217 106.195C166.173 106.011 166.133 105.845 166.098 105.696C166.063 105.538 166.037 105.398 166.02 105.275C166.002 105.144 165.985 105.025 165.967 104.92H165.914C165.897 105.025 165.875 105.144 165.849 105.275C165.831 105.398 165.805 105.538 165.77 105.696C165.735 105.845 165.695 106.011 165.652 106.195L164.718 109.941Z" fill="#0F0F0F"/>
<path d="M153.735 104.131L154.339 111.045C154.357 111.212 154.37 111.4 154.379 111.611C154.387 111.821 154.396 112.018 154.405 112.202C154.414 112.421 154.422 112.645 154.431 112.873H154.576C154.593 112.645 154.615 112.421 154.642 112.202C154.659 112.018 154.681 111.821 154.707 111.611C154.734 111.4 154.755 111.212 154.773 111.045L155.693 104.131H157.008L157.875 111.045C157.893 111.203 157.915 111.387 157.941 111.598C157.967 111.808 157.989 112.009 158.007 112.202C158.033 112.421 158.059 112.645 158.085 112.873H158.23C158.239 112.645 158.248 112.421 158.256 112.202C158.265 112.018 158.274 111.821 158.283 111.611C158.291 111.4 158.304 111.212 158.322 111.045L158.94 104.131H159.952L158.966 113.595H157.362L156.534 106.642C156.508 106.388 156.486 106.156 156.469 105.945C156.46 105.726 156.451 105.542 156.442 105.393C156.442 105.209 156.442 105.043 156.442 104.894H156.271C156.271 105.043 156.271 105.209 156.271 105.393C156.263 105.542 156.25 105.726 156.232 105.945C156.223 106.156 156.201 106.388 156.166 106.642L155.272 113.595H153.669L152.722 104.131H153.735Z" fill="#0F0F0F"/>
<path d="M143.395 104.131H150.099V105.17H147.351V113.595H146.142V105.17H143.395V104.131Z" fill="#0F0F0F"/>
<path d="M134.462 104.118H140.114V105.17H135.619V108.233H139.772V109.284H135.645V113.595H134.462V104.118Z" fill="#0F0F0F"/>
<path d="M125.857 110.901C125.857 111.444 126.011 111.878 126.317 112.202C126.624 112.518 127.04 112.675 127.566 112.675C128.092 112.675 128.508 112.518 128.815 112.202C129.122 111.878 129.275 111.444 129.275 110.901V106.826C129.275 106.283 129.122 105.853 128.815 105.538C128.508 105.214 128.092 105.052 127.566 105.052C127.04 105.052 126.624 105.214 126.317 105.538C126.011 105.853 125.857 106.283 125.857 106.826V110.901ZM124.674 106.826C124.674 106.397 124.74 106.007 124.872 105.656C125.012 105.306 125.205 105.008 125.45 104.762C125.704 104.517 126.006 104.329 126.357 104.197C126.716 104.066 127.119 104 127.566 104C128.013 104 128.412 104.066 128.762 104.197C129.122 104.329 129.424 104.517 129.669 104.762C129.923 105.008 130.116 105.306 130.248 105.656C130.388 106.007 130.458 106.397 130.458 106.826V110.901C130.458 111.33 130.388 111.72 130.248 112.071C130.116 112.412 129.923 112.706 129.669 112.951C129.424 113.197 129.122 113.39 128.762 113.53C128.403 113.661 128.004 113.727 127.566 113.727C127.119 113.727 126.716 113.661 126.357 113.53C126.006 113.398 125.704 113.21 125.45 112.965C125.205 112.719 125.012 112.421 124.872 112.071C124.74 111.72 124.674 111.33 124.674 110.901V106.826Z" fill="#0F0F0F"/>
<path d="M117.976 113.727C117.546 113.727 117.148 113.67 116.78 113.556C116.412 113.433 116.092 113.262 115.82 113.043C115.557 112.816 115.347 112.544 115.189 112.228C115.04 111.913 114.961 111.558 114.953 111.164H116.201C116.201 111.392 116.245 111.598 116.333 111.782C116.429 111.966 116.561 112.123 116.727 112.255C116.894 112.386 117.086 112.491 117.305 112.57C117.525 112.64 117.757 112.675 118.002 112.675C118.554 112.675 118.992 112.548 119.317 112.294C119.641 112.031 119.803 111.676 119.803 111.229C119.803 110.853 119.685 110.52 119.448 110.23C119.211 109.933 118.87 109.7 118.423 109.534L117.424 109.166C115.96 108.631 115.229 107.746 115.229 106.511C115.229 105.722 115.478 105.109 115.978 104.67C116.477 104.223 117.165 104 118.042 104C118.453 104 118.83 104.057 119.172 104.171C119.514 104.285 119.807 104.451 120.053 104.67C120.307 104.889 120.504 105.157 120.644 105.472C120.793 105.779 120.872 106.125 120.881 106.511H119.632C119.632 106.292 119.588 106.094 119.501 105.919C119.413 105.735 119.295 105.582 119.146 105.459C119.005 105.328 118.839 105.227 118.646 105.157C118.453 105.087 118.247 105.052 118.028 105.052C117.529 105.052 117.135 105.17 116.845 105.406C116.565 105.643 116.425 105.963 116.425 106.366C116.425 106.76 116.53 107.089 116.74 107.352C116.959 107.606 117.31 107.821 117.792 107.996L118.843 108.377C119.544 108.631 120.079 108.999 120.447 109.481C120.815 109.963 120.999 110.533 120.999 111.19C120.999 111.979 120.727 112.601 120.184 113.057C119.65 113.503 118.913 113.727 117.976 113.727Z" fill="#0F0F0F"/>
<path d="M96.1005 113.595V104.131H101.687V105.209H97.2835V108.18H101.227V109.258H97.2835V112.518H101.687V113.595H96.1005Z" fill="#0F0F0F"/>
<path d="M89.2837 104C90.1074 104 90.769 104.228 91.2685 104.684C91.7768 105.13 92.0791 105.757 92.1755 106.563H90.9925C90.9399 106.09 90.7603 105.722 90.4535 105.459C90.1556 105.187 89.7657 105.052 89.2837 105.052C88.7579 105.052 88.3417 105.209 88.035 105.525C87.7283 105.84 87.5749 106.274 87.5749 106.826V110.901C87.5749 111.453 87.7239 111.887 88.0218 112.202C88.3285 112.518 88.7491 112.675 89.2837 112.675C89.7657 112.675 90.1556 112.544 90.4535 112.281C90.7603 112.009 90.9399 111.637 90.9925 111.164H92.1755C92.0791 111.97 91.7768 112.601 91.2685 113.057C90.769 113.503 90.1074 113.727 89.2837 113.727C88.8368 113.727 88.4337 113.661 88.0744 113.53C87.7239 113.398 87.4216 113.21 87.1674 112.965C86.9221 112.719 86.7293 112.421 86.5891 112.071C86.4576 111.72 86.3919 111.33 86.3919 110.901V106.826C86.3919 106.397 86.4576 106.007 86.5891 105.656C86.7293 105.306 86.9221 105.008 87.1674 104.762C87.4216 104.517 87.7239 104.329 88.0744 104.197C88.4337 104.066 88.8368 104 89.2837 104Z" fill="#0F0F0F"/>
<path d="M76.8541 104.131H79.8774C80.3067 104.131 80.6967 104.197 81.0472 104.329C81.3977 104.46 81.6957 104.648 81.941 104.894C82.1952 105.139 82.3879 105.433 82.5194 105.775C82.6596 106.108 82.7297 106.48 82.7297 106.892C82.7297 107.549 82.5588 108.11 82.2171 108.574C81.8841 109.03 81.4284 109.345 80.85 109.521L82.8611 113.595H81.4678L79.6276 109.652H78.0371V113.595H76.8541V104.131ZM78.0371 108.601H79.8774C80.3768 108.601 80.7712 108.447 81.0604 108.141C81.3583 107.825 81.5073 107.409 81.5073 106.892C81.5073 106.375 81.3583 105.963 81.0604 105.656C80.7624 105.341 80.3681 105.183 79.8774 105.183H78.0371V108.601Z" fill="#0F0F0F"/>
<path d="M70.0241 113.727C69.1215 113.727 68.4249 113.482 67.9341 112.991C67.4434 112.5 67.1981 111.825 67.1981 110.967V104.131H68.3811V110.967C68.3811 111.492 68.5213 111.909 68.8017 112.215C69.0821 112.522 69.4896 112.675 70.0241 112.675C70.5499 112.675 70.953 112.522 71.2334 112.215C71.5226 111.909 71.6672 111.492 71.6672 110.967V104.131H72.8502V110.967C72.8502 111.834 72.6048 112.513 72.1141 113.004C71.6234 113.486 70.9267 113.727 70.0241 113.727Z" fill="#0F0F0F"/>
<path d="M58.725 110.901C58.725 111.444 58.8783 111.878 59.1851 112.202C59.4918 112.518 59.908 112.675 60.4338 112.675C60.9596 112.675 61.3758 112.518 61.6825 112.202C61.9892 111.878 62.1426 111.444 62.1426 110.901V106.826C62.1426 106.283 61.9892 105.853 61.6825 105.538C61.3758 105.214 60.9596 105.052 60.4338 105.052C59.908 105.052 59.4918 105.214 59.1851 105.538C58.8783 105.853 58.725 106.283 58.725 106.826V110.901ZM57.542 106.826C57.542 106.397 57.6077 106.007 57.7392 105.656C57.8794 105.306 58.0722 105.008 58.3175 104.762C58.5716 104.517 58.874 104.329 59.2245 104.197C59.5838 104.066 59.9869 104 60.4338 104C60.8807 104 61.2794 104.066 61.6299 104.197C61.9892 104.329 62.2915 104.517 62.5369 104.762C62.791 105.008 62.9838 105.306 63.1153 105.656C63.2555 106.007 63.3256 106.397 63.3256 106.826V110.901C63.3256 111.33 63.2555 111.72 63.1153 112.071C62.9838 112.412 62.791 112.706 62.5369 112.951C62.2915 113.197 61.9892 113.39 61.6299 113.53C61.2706 113.661 60.8719 113.727 60.4338 113.727C59.9869 113.727 59.5838 113.661 59.2245 113.53C58.874 113.398 58.5716 113.21 58.3175 112.965C58.0722 112.719 57.8794 112.421 57.7392 112.071C57.6077 111.72 57.542 111.33 57.542 110.901V106.826Z" fill="#0F0F0F"/>
<path d="M50.8435 113.727C50.4141 113.727 50.0154 113.67 49.6473 113.556C49.2793 113.433 48.9594 113.262 48.6878 113.043C48.4249 112.816 48.2146 112.544 48.0569 112.228C47.9079 111.913 47.829 111.558 47.8203 111.164H49.069C49.069 111.392 49.1128 111.598 49.2004 111.782C49.2968 111.966 49.4283 112.123 49.5948 112.255C49.7613 112.386 49.954 112.491 50.1731 112.57C50.3922 112.64 50.6244 112.675 50.8698 112.675C51.4218 112.675 51.86 112.548 52.1842 112.294C52.5084 112.031 52.6706 111.676 52.6706 111.229C52.6706 110.853 52.5523 110.52 52.3157 110.23C52.0791 109.933 51.7373 109.7 51.2904 109.534L50.2914 109.166C48.828 108.631 48.0963 107.746 48.0963 106.511C48.0963 105.722 48.346 105.109 48.8455 104.67C49.345 104.223 50.0329 104 50.9092 104C51.3211 104 51.6979 104.057 52.0396 104.171C52.3814 104.285 52.6749 104.451 52.9203 104.67C53.1744 104.889 53.3716 105.157 53.5118 105.472C53.6608 105.779 53.7396 106.125 53.7484 106.511H52.4997C52.4997 106.292 52.4559 106.094 52.3682 105.919C52.2806 105.735 52.1623 105.582 52.0133 105.459C51.8731 105.328 51.7066 105.227 51.5139 105.157C51.3211 105.087 51.1151 105.052 50.8961 105.052C50.3966 105.052 50.0022 105.17 49.7131 105.406C49.4326 105.643 49.2924 105.963 49.2924 106.366C49.2924 106.76 49.3976 107.089 49.6079 107.352C49.827 107.606 50.1775 107.821 50.6595 107.996L51.711 108.377C52.4121 108.631 52.9466 108.999 53.3146 109.481C53.6827 109.963 53.8667 110.533 53.8667 111.19C53.8667 111.979 53.5951 112.601 53.0518 113.057C52.5172 113.503 51.7811 113.727 50.8435 113.727Z" fill="#0F0F0F"/>
<path d="M28.8367 104.131H30.3352L32.8458 110.48C32.9159 110.638 32.9816 110.822 33.043 111.032C33.1043 111.234 33.1569 111.427 33.2007 111.611C33.262 111.83 33.319 112.053 33.3716 112.281H33.4767C33.4767 112.281 33.4724 112.237 33.4636 112.15C33.4548 112.053 33.4417 111.926 33.4242 111.768C33.4066 111.611 33.3891 111.431 33.3716 111.229C33.3628 111.019 33.3584 110.8 33.3584 110.572V104.131H34.4889V113.595H32.9904L30.5192 107.234C30.4491 107.032 30.379 106.826 30.3089 106.616C30.2388 106.405 30.1819 106.213 30.138 106.037C30.0767 105.836 30.0241 105.634 29.9803 105.433H29.8751C29.8927 105.573 29.9102 105.731 29.9277 105.906C29.9365 106.055 29.9452 106.235 29.954 106.445C29.9628 106.646 29.9672 106.874 29.9672 107.128V113.595H28.8367V104.131Z" fill="#0F0F0F"/>
<path d="M19.3778 113.595V104.131H24.9642V105.209H20.5608V108.18H24.5042V109.258H20.5608V112.518H24.9642V113.595H19.3778Z" fill="#0F0F0F"/>
<path d="M12.9159 104.131C13.3453 104.131 13.7353 104.197 14.0858 104.329C14.4363 104.46 14.7342 104.648 14.9796 104.894C15.2337 105.139 15.4265 105.433 15.558 105.775C15.6982 106.108 15.7683 106.48 15.7683 106.892C15.7683 107.304 15.6982 107.68 15.558 108.022C15.4177 108.355 15.2206 108.644 14.9665 108.89C14.7211 109.135 14.4231 109.324 14.0726 109.455C13.7221 109.586 13.3365 109.652 12.9159 109.652H10.9048V113.595H9.7218V104.131H12.9159ZM10.9048 105.183V108.601H12.9159C13.4066 108.601 13.801 108.447 14.0989 108.141C14.3969 107.825 14.5458 107.409 14.5458 106.892C14.5458 106.375 14.3969 105.963 14.0989 105.656C13.801 105.341 13.4066 105.183 12.9159 105.183H10.9048Z" fill="#0F0F0F"/>
<path d="M1.183 110.901C1.183 111.444 1.33636 111.878 1.64306 112.202C1.94976 112.518 2.36601 112.675 2.89179 112.675C3.41757 112.675 3.83381 112.518 4.14051 112.202C4.44722 111.878 4.60057 111.444 4.60057 110.901V106.826C4.60057 106.283 4.44722 105.853 4.14051 105.538C3.83381 105.214 3.41757 105.052 2.89179 105.052C2.36601 105.052 1.94976 105.214 1.64306 105.538C1.33636 105.853 1.183 106.283 1.183 106.826V110.901ZM0 106.826C0 106.397 0.0657223 106.007 0.197167 105.656C0.337375 105.306 0.530161 105.008 0.775525 104.762C1.02965 104.517 1.33197 104.329 1.68249 104.197C2.04178 104.066 2.44487 104 2.89179 104C3.3387 104 3.73741 104.066 4.08793 104.197C4.44722 104.329 4.74954 104.517 4.9949 104.762C5.24903 105.008 5.44182 105.306 5.57326 105.656C5.71347 106.007 5.78357 106.397 5.78357 106.826V110.901C5.78357 111.33 5.71347 111.72 5.57326 112.071C5.44182 112.412 5.24903 112.706 4.9949 112.951C4.74954 113.197 4.44722 113.39 4.08793 113.53C3.72865 113.661 3.32994 113.727 2.89179 113.727C2.44487 113.727 2.04178 113.661 1.68249 113.53C1.33197 113.398 1.02965 113.21 0.775525 112.965C0.530161 112.719 0.337375 112.421 0.197167 112.071C0.0657223 111.72 0 111.33 0 110.901V106.826Z" fill="#0F0F0F"/>
<path d="M175.73 133.685L180.739 147.984L178.583 152.296L171.386 133.685H175.73ZM171.798 156.704V153.311H174.208C174.715 153.311 175.159 153.248 175.54 153.121C175.92 153.015 176.258 152.804 176.554 152.487C176.85 152.17 177.104 151.715 177.315 151.123L183.783 133.685H188L180.264 152.835C179.672 154.336 178.932 155.414 178.044 156.069C177.157 156.746 176.068 157.084 174.779 157.084C174.229 157.084 173.711 157.052 173.225 156.989C172.739 156.925 172.263 156.83 171.798 156.704Z" fill="#0F0F0F"/>
<path d="M160.817 133.685H170.868V137.078H160.817V133.685ZM170.836 145.828L171.312 149.126C170.403 149.549 169.377 149.76 168.236 149.76C167.221 149.76 166.334 149.58 165.573 149.221C164.833 148.84 164.252 148.259 163.829 147.477C163.427 146.674 163.227 145.628 163.227 144.338V128.802H167.285V143.577C167.285 144.528 167.465 145.194 167.824 145.575C168.204 145.934 168.68 146.114 169.251 146.114C169.737 146.114 170.265 146.019 170.836 145.828Z" fill="#0F0F0F"/>
<path d="M154.985 149.379V133.685H159.044V149.379H154.985ZM157.014 130.673C156.317 130.673 155.736 130.441 155.271 129.975C154.806 129.489 154.573 128.919 154.573 128.263C154.573 127.566 154.806 126.985 155.271 126.52C155.736 126.055 156.317 125.822 157.014 125.822C157.67 125.822 158.23 126.055 158.695 126.52C159.181 126.985 159.424 127.566 159.424 128.263C159.424 128.919 159.181 129.489 158.695 129.975C158.23 130.441 157.67 130.673 157.014 130.673Z" fill="#0F0F0F"/>
<path d="M151.628 149.38H147.57V125.727H151.628V149.38Z" fill="#0F0F0F"/>
<path d="M140.153 149.379V133.685H144.211V149.379H140.153ZM142.182 130.673C141.484 130.673 140.903 130.441 140.438 129.975C139.973 129.489 139.741 128.919 139.741 128.263C139.741 127.566 139.973 126.985 140.438 126.52C140.903 126.055 141.484 125.822 142.182 125.822C142.837 125.822 143.397 126.055 143.862 126.52C144.349 126.985 144.592 127.566 144.592 128.263C144.592 128.919 144.349 129.489 143.862 129.975C143.397 130.441 142.837 130.673 142.182 130.673Z" fill="#0F0F0F"/>
<path d="M124.806 149.38H121.033V125.727H125.091V135.873C125.598 135.027 126.338 134.372 127.31 133.907C128.283 133.421 129.371 133.178 130.576 133.178C132.056 133.178 133.335 133.537 134.413 134.256C135.491 134.974 136.315 135.968 136.886 137.236C137.477 138.504 137.773 139.973 137.773 141.643C137.773 143.25 137.456 144.666 136.822 145.892C136.209 147.118 135.343 148.08 134.222 148.777C133.102 149.453 131.792 149.792 130.291 149.792C129.128 149.792 128.082 149.549 127.152 149.062C126.222 148.555 125.524 147.868 125.059 147.002L124.806 149.38ZM125.123 141.453C125.123 142.362 125.302 143.165 125.662 143.863C126.021 144.56 126.518 145.11 127.152 145.511C127.807 145.892 128.568 146.082 129.435 146.082C130.323 146.082 131.083 145.881 131.718 145.48C132.352 145.078 132.838 144.539 133.176 143.863C133.514 143.165 133.683 142.362 133.683 141.453C133.683 140.544 133.514 139.751 133.176 139.075C132.838 138.378 132.352 137.839 131.718 137.458C131.083 137.056 130.323 136.856 129.435 136.856C128.568 136.856 127.807 137.046 127.152 137.426C126.518 137.807 126.021 138.346 125.662 139.043C125.302 139.741 125.123 140.544 125.123 141.453Z" fill="#0F0F0F"/>
<path d="M108.896 149.792C107.226 149.792 105.905 149.348 104.933 148.46C103.982 147.551 103.506 146.357 103.506 144.877C103.506 143.44 104.003 142.288 104.996 141.421C106.011 140.555 107.459 140.047 109.34 139.899L113.969 139.551V139.202C113.969 138.525 113.842 137.976 113.589 137.553C113.335 137.13 112.976 136.824 112.511 136.634C112.046 136.443 111.496 136.348 110.862 136.348C109.721 136.348 108.854 136.57 108.262 137.014C107.67 137.437 107.374 138.06 107.374 138.885H103.918C103.918 137.722 104.214 136.718 104.806 135.873C105.398 135.027 106.233 134.372 107.311 133.907C108.389 133.442 109.636 133.209 111.052 133.209C112.49 133.209 113.716 133.463 114.73 133.97C115.766 134.478 116.559 135.228 117.108 136.222C117.658 137.215 117.932 138.452 117.932 139.931V149.379H114.381L114.064 147.097C113.747 147.9 113.103 148.555 112.13 149.062C111.179 149.549 110.101 149.792 108.896 149.792ZM110.228 146.716C111.369 146.716 112.278 146.41 112.955 145.797C113.652 145.163 114.001 144.275 114.001 143.133V142.277L110.894 142.563C109.71 142.647 108.865 142.869 108.357 143.229C107.871 143.588 107.628 144.074 107.628 144.687C107.628 145.385 107.85 145.902 108.294 146.241C108.759 146.558 109.404 146.716 110.228 146.716Z" fill="#0F0F0F"/>
<path d="M90.1019 149.379H86.0436V133.685H89.8166L90.1336 135.651C90.6409 134.869 91.3279 134.266 92.1945 133.844C93.0823 133.421 94.0546 133.209 95.1115 133.209C97.0772 133.209 98.5568 133.791 99.5503 134.953C100.565 136.095 101.072 137.68 101.072 139.709V149.379H97.0138V140.66C97.0138 139.434 96.7179 138.504 96.126 137.87C95.5553 137.215 94.7838 136.887 93.8115 136.887C92.6701 136.887 91.7612 137.257 91.0848 137.997C90.4296 138.716 90.1019 139.677 90.1019 140.882V149.379Z" fill="#0F0F0F"/>
<path d="M78.6583 149.379V133.685H82.7167V149.379H78.6583ZM80.6875 130.673C79.99 130.673 79.4087 130.441 78.9437 129.975C78.4787 129.489 78.2462 128.919 78.2462 128.263C78.2462 127.566 78.4787 126.985 78.9437 126.52C79.4087 126.055 79.99 125.822 80.6875 125.822C81.3428 125.822 81.9029 126.055 82.3679 126.52C82.8541 126.985 83.0971 127.566 83.0971 128.263C83.0971 128.919 82.8541 129.489 82.3679 129.975C81.9029 130.441 81.3428 130.673 80.6875 130.673Z" fill="#0F0F0F"/>
<path d="M66.5219 149.792C64.8521 149.792 63.531 149.348 62.5587 148.46C61.6075 147.551 61.1319 146.357 61.1319 144.877C61.1319 143.44 61.6286 142.288 62.6221 141.421C63.6367 140.555 65.0846 140.047 66.9658 139.899L71.5948 139.551V139.202C71.5948 138.525 71.468 137.976 71.2144 137.553C70.9607 137.13 70.6014 136.824 70.1364 136.634C69.6713 136.443 69.1218 136.348 68.4877 136.348C67.3462 136.348 66.4796 136.57 65.8878 137.014C65.2959 137.437 65 138.06 65 138.885H61.5441C61.5441 137.722 61.84 136.718 62.4318 135.873C63.0237 135.027 63.8586 134.372 64.9366 133.907C66.0146 133.442 67.2617 133.209 68.6779 133.209C70.1152 133.209 71.3412 133.463 72.3558 133.97C73.3915 134.478 74.1842 135.228 74.7337 136.222C75.2833 137.215 75.5581 138.452 75.5581 139.931V149.379H72.007L71.69 147.097C71.3729 147.9 70.7282 148.555 69.7559 149.062C68.8047 149.549 67.7267 149.792 66.5219 149.792ZM67.8535 146.716C68.995 146.716 69.9039 146.41 70.5802 145.797C71.2778 145.163 71.6265 144.275 71.6265 143.133V142.277L68.5194 142.563C67.3357 142.647 66.4902 142.869 65.9829 143.229C65.4967 143.588 65.2537 144.074 65.2537 144.687C65.2537 145.385 65.4756 145.902 65.9195 146.241C66.3845 146.558 67.0292 146.716 67.8535 146.716Z" fill="#0F0F0F"/>
<path d="M49.5466 133.685H59.5974V137.078H49.5466V133.685ZM59.5657 145.828L60.0413 149.126C59.1324 149.549 58.1072 149.76 56.9658 149.76C55.9512 149.76 55.0635 149.58 54.3025 149.221C53.5627 148.84 52.9814 148.259 52.5587 147.477C52.1571 146.674 51.9563 145.628 51.9563 144.338V128.802H56.0146V143.577C56.0146 144.528 56.1943 145.194 56.5536 145.575C56.9341 145.934 57.4097 146.114 57.9804 146.114C58.4666 146.114 58.995 146.019 59.5657 145.828Z" fill="#0F0F0F"/>
<path d="M35.7919 144.592H39.6283C39.6706 145.247 39.9243 145.765 40.3893 146.145C40.8543 146.505 41.5096 146.684 42.355 146.684C43.2428 146.684 43.9086 146.526 44.3525 146.209C44.8175 145.892 45.05 145.469 45.05 144.941C45.05 144.581 44.9338 144.264 44.7013 143.989C44.4688 143.715 44.0038 143.493 43.3062 143.324L40.4844 142.69C39.0682 142.372 38.0113 141.865 37.3138 141.168C36.6163 140.449 36.2675 139.445 36.2675 138.156C36.2675 137.12 36.5317 136.232 37.0602 135.492C37.6097 134.752 38.3601 134.192 39.3113 133.812C40.2625 133.41 41.3405 133.209 42.5453 133.209C43.729 133.209 44.7647 133.421 45.6525 133.844C46.5614 134.266 47.2695 134.858 47.7768 135.619C48.284 136.38 48.5377 137.289 48.5377 138.346H44.6696C44.6696 137.691 44.4688 137.173 44.0672 136.792C43.6656 136.412 43.1054 136.222 42.3868 136.222C41.6681 136.222 41.108 136.38 40.7063 136.697C40.3047 137.014 40.1039 137.447 40.1039 137.997C40.1039 138.821 40.7592 139.392 42.0697 139.709L44.9232 140.343C46.2337 140.639 47.2166 141.125 47.8719 141.802C48.5483 142.457 48.8865 143.387 48.8865 144.592C48.8865 145.649 48.6011 146.568 48.0304 147.35C47.4808 148.132 46.6988 148.735 45.6842 149.158C44.6907 149.58 43.5387 149.792 42.2282 149.792C40.2625 149.792 38.6983 149.316 37.5358 148.365C36.3732 147.393 35.7919 146.135 35.7919 144.592Z" fill="#0F0F0F"/>
<path d="M29.9217 133.685H33.98V149.379H30.207L29.89 147.35C29.425 148.069 28.7274 148.661 27.7974 149.126C26.8885 149.57 25.9162 149.792 24.8805 149.792C23.0838 149.792 21.6676 149.232 20.6319 148.111C19.6173 146.97 19.11 145.427 19.11 143.482V133.685H23.2V142.055C23.2 143.493 23.4748 144.539 24.0244 145.194C24.574 145.85 25.3772 146.177 26.434 146.177C27.6177 146.177 28.4949 145.828 29.0656 145.131C29.6363 144.433 29.9217 143.355 29.9217 141.897V133.685Z" fill="#0F0F0F"/>
<path d="M0.317059 132.702C0.317059 131.328 0.665824 130.123 1.36335 129.088C2.08202 128.031 3.0649 127.207 4.312 126.615C5.58024 126.023 7.02814 125.727 8.65571 125.727C10.241 125.727 11.6149 126.012 12.7775 126.583C13.94 127.133 14.8489 127.925 15.5042 128.961C16.1594 129.976 16.4976 131.191 16.5188 132.607H12.2702C12.2279 131.635 11.8791 130.884 11.2239 130.356C10.5898 129.806 9.71257 129.532 8.59229 129.532C7.38747 129.532 6.41516 129.806 5.67535 130.356C4.95669 130.884 4.59735 131.614 4.59735 132.544C4.59735 133.347 4.81929 133.981 5.26318 134.446C5.70706 134.911 6.39402 135.239 7.32406 135.429L10.9702 136.253C12.9571 136.676 14.4367 137.405 15.4091 138.441C16.4025 139.456 16.8992 140.851 16.8992 142.626C16.8992 144.063 16.5399 145.321 15.8212 146.399C15.1237 147.477 14.1303 148.312 12.8409 148.904C11.5726 149.496 10.0719 149.792 8.33865 149.792C6.68994 149.792 5.24204 149.517 3.99494 148.967C2.74784 148.397 1.77553 147.593 1.078 146.558C0.401608 145.522 0.0422745 144.307 0 142.912H4.28029C4.28029 143.863 4.63963 144.613 5.35829 145.163C6.0981 145.712 7.10212 145.987 8.37035 145.987C9.68086 145.987 10.7166 145.723 11.4775 145.194C12.2596 144.645 12.6506 143.916 12.6506 143.007C12.6506 142.246 12.4393 141.643 12.0165 141.199C11.6149 140.734 10.9597 140.407 10.0508 140.217L6.40459 139.424C4.39655 139.001 2.87467 138.23 1.83894 137.109C0.824353 135.968 0.317059 134.499 0.317059 132.702Z" fill="#0F0F0F"/>
<path d="M105.581 182.737H101.808V159.084H105.867V169.23C106.374 168.384 107.114 167.729 108.086 167.264C109.058 166.778 110.147 166.535 111.352 166.535C112.831 166.535 114.11 166.894 115.188 167.613C116.266 168.332 117.091 169.325 117.661 170.593C118.253 171.861 118.549 173.33 118.549 175C118.549 176.607 118.232 178.023 117.598 179.249C116.985 180.475 116.118 181.437 114.998 182.134C113.878 182.811 112.567 183.149 111.067 183.149C109.904 183.149 108.858 182.906 107.928 182.42C106.998 181.912 106.3 181.225 105.835 180.359L105.581 182.737ZM105.898 174.81C105.898 175.719 106.078 176.522 106.437 177.22C106.797 177.917 107.294 178.467 107.928 178.868C108.583 179.249 109.344 179.439 110.21 179.439C111.098 179.439 111.859 179.238 112.493 178.837C113.127 178.435 113.614 177.896 113.952 177.22C114.29 176.522 114.459 175.719 114.459 174.81C114.459 173.901 114.29 173.109 113.952 172.432C113.614 171.735 113.127 171.196 112.493 170.815C111.859 170.414 111.098 170.213 110.21 170.213C109.344 170.213 108.583 170.403 107.928 170.783C107.294 171.164 106.797 171.703 106.437 172.4C106.078 173.098 105.898 173.901 105.898 174.81Z" fill="#0F0F0F"/>
<path d="M89.672 183.149C88.0021 183.149 86.6811 182.705 85.7087 181.817C84.7576 180.908 84.282 179.714 84.282 178.234C84.282 176.797 84.7787 175.645 85.7722 174.778C86.7867 173.912 88.2346 173.405 90.1159 173.257L94.7449 172.908V172.559C94.7449 171.883 94.6181 171.333 94.3645 170.91C94.1108 170.488 93.7515 170.181 93.2865 169.991C92.8214 169.801 92.2719 169.706 91.6377 169.706C90.4963 169.706 89.6297 169.927 89.0379 170.371C88.446 170.794 88.1501 171.418 88.1501 172.242H84.6942C84.6942 171.079 84.9901 170.075 85.5819 169.23C86.1738 168.384 87.0087 167.729 88.0867 167.264C89.1647 166.799 90.4118 166.567 91.828 166.567C93.2653 166.567 94.4913 166.82 95.5059 167.328C96.5416 167.835 97.3342 168.585 97.8838 169.579C98.4334 170.572 98.7082 171.809 98.7082 173.288V182.737H95.1571L94.84 180.454C94.523 181.257 93.8783 181.912 92.906 182.42C91.9548 182.906 90.8768 183.149 89.672 183.149ZM91.0036 180.073C92.145 180.073 93.0539 179.767 93.7303 179.154C94.4279 178.52 94.7766 177.632 94.7766 176.491V175.635L91.6695 175.92C90.4858 176.004 89.6403 176.226 89.133 176.586C88.6468 176.945 88.4037 177.431 88.4037 178.044C88.4037 178.742 88.6257 179.26 89.0696 179.598C89.5346 179.915 90.1793 180.073 91.0036 180.073Z" fill="#0F0F0F"/>
<path d="M73.2803 159.496V182.737H69V159.496H73.2803ZM69.7609 182.737V178.773H82.8872V182.737H69.7609Z" fill="#0F0F0F"/>
</svg>
