<svg width="231" height="70" viewBox="0 0 231 70" fill="none" xmlns="http://www.w3.org/2000/svg">
<path d="M48.8133 48.5305C49.6226 49.3398 50.7208 49.7947 51.8656 49.7947L62.5756 49.799C64.614 49.7998 66.266 51.4524 66.266 53.4907V64.5321C66.266 66.5716 64.612 68.2248 62.5724 68.2238L51.526 68.2185C49.4868 68.2176 47.8345 66.5634 47.836 64.5241L47.8438 53.7993C47.8438 52.816 47.2749 51.4424 46.5795 50.747L46.4303 50.5978C45.6205 49.788 44.5228 49.3331 43.3779 49.3331H18.682C17.8542 49.3331 17.06 49.6623 16.4747 50.2475C15.9181 50.8042 15.6053 51.5589 15.6053 52.3463V57.1805C15.6053 59.2194 13.9524 60.8722 11.9135 60.8722H7.55727C5.51949 60.8722 3.86709 59.2212 3.86549 57.1834L3.86206 52.831C3.86046 50.791 5.51379 49.1363 7.55384 49.1363H12.3238C13.1562 49.1363 13.9542 48.8059 14.5424 48.2177L14.6774 48.0827C15.2319 47.5282 15.5435 46.776 15.5435 45.9919L15.5377 21.0208C15.5372 18.9816 17.1902 17.3282 19.2294 17.3282H43.8404C45.5209 17.3282 46.8831 15.966 46.8831 14.2855V5.46659C46.8831 3.42741 48.5364 1.77443 50.5756 1.77484L59.2234 1.77657C61.2627 1.77698 62.9154 3.43075 62.9145 5.47002L62.9105 14.1165C62.9095 16.1509 61.2635 17.801 59.2291 17.8021C58.8742 17.8023 58.504 17.8025 58.1234 17.8025H50.7532C48.9836 17.8025 47.5486 19.0099 47.5486 21.0066V45.4782C47.5486 46.623 48.0035 47.7207 48.8133 48.5305Z" fill="#0F0F0F"/>
<path d="M226.581 10.8146V3.28638H231V4.14376H227.517V6.50678H230.636V7.36415H227.517V9.9572H231V10.8146H226.581Z" fill="#0F0F0F"/>
<path d="M218.942 3.28638H221.333C221.673 3.28638 221.982 3.33866 222.259 3.44321C222.536 3.54777 222.772 3.69764 222.966 3.89282C223.167 4.08799 223.32 4.32151 223.424 4.59336C223.534 4.85824 223.59 5.15449 223.59 5.4821C223.59 6.00489 223.455 6.45101 223.184 6.82045C222.921 7.18292 222.56 7.43386 222.103 7.57327L223.694 10.8146H222.592L221.136 7.67783H219.878V10.8146H218.942V3.28638ZM219.878 6.84136H221.333C221.729 6.84136 222.041 6.71938 222.269 6.47541C222.505 6.22447 222.623 5.89337 222.623 5.4821C222.623 5.07084 222.505 4.74322 222.269 4.49925C222.034 4.24831 221.722 4.12284 221.333 4.12284H219.878V6.84136Z" fill="#0F0F0F"/>
<path d="M212.915 3.28638H214.225L216.201 10.8146H215.202L214.682 8.69205H212.384L211.854 10.8146H210.877L212.915 3.28638ZM212.582 7.90786H214.495L213.767 4.92794C213.733 4.78156 213.702 4.64912 213.674 4.53062C213.646 4.40515 213.625 4.29362 213.611 4.19604C213.598 4.09148 213.584 3.99737 213.57 3.91373H213.528C213.514 3.99737 213.497 4.09148 213.476 4.19604C213.462 4.29362 213.442 4.40515 213.414 4.53062C213.386 4.64912 213.355 4.78156 213.32 4.92794L212.582 7.90786Z" fill="#0F0F0F"/>
<path d="M203.893 3.28638L204.371 8.78615C204.385 8.91859 204.395 9.06846 204.402 9.23575C204.409 9.40304 204.416 9.55988 204.423 9.70626C204.43 9.88053 204.437 10.0583 204.444 10.2395H204.558C204.572 10.0583 204.589 9.88053 204.61 9.70626C204.624 9.55988 204.641 9.40304 204.662 9.23575C204.683 9.06846 204.7 8.91859 204.714 8.78615L205.442 3.28638H206.482L207.168 8.78615C207.182 8.91162 207.2 9.058 207.22 9.22529C207.241 9.39259 207.258 9.55291 207.272 9.70626C207.293 9.88053 207.314 10.0583 207.335 10.2395H207.449C207.456 10.0583 207.463 9.88053 207.47 9.70626C207.477 9.55988 207.484 9.40304 207.491 9.23575C207.498 9.06846 207.508 8.91859 207.522 8.78615L208.011 3.28638H208.811L208.031 10.8146H206.763L206.108 5.28344C206.087 5.0813 206.07 4.89658 206.056 4.72928C206.049 4.55502 206.042 4.40864 206.035 4.29014C206.035 4.14376 206.035 4.01131 206.035 3.89282H205.9C205.9 4.01131 205.9 4.14376 205.9 4.29014C205.893 4.40864 205.882 4.55502 205.869 4.72928C205.862 4.89658 205.844 5.0813 205.817 5.28344L205.109 10.8146H203.841L203.092 3.28638H203.893Z" fill="#0F0F0F"/>
<path d="M195.713 3.28638H201.016V4.11239H198.843V10.8146H197.886V4.11239H195.713V3.28638Z" fill="#0F0F0F"/>
<path d="M188.646 3.27594H193.118V4.11241H189.561V6.54862H192.847V7.38508H189.582V10.8146H188.646V3.27594Z" fill="#0F0F0F"/>
<path d="M181.839 8.67114C181.839 9.10331 181.961 9.44836 182.203 9.70627C182.446 9.95721 182.775 10.0827 183.191 10.0827C183.607 10.0827 183.936 9.95721 184.179 9.70627C184.422 9.44836 184.543 9.10331 184.543 8.67114V5.42983C184.543 4.99765 184.422 4.6561 184.179 4.40516C183.936 4.14725 183.607 4.01829 183.191 4.01829C182.775 4.01829 182.446 4.14725 182.203 4.40516C181.961 4.6561 181.839 4.99765 181.839 5.42983V8.67114ZM180.903 5.42983C180.903 5.08827 180.955 4.77808 181.059 4.49926C181.17 4.22044 181.323 3.98344 181.517 3.78826C181.718 3.59309 181.957 3.44322 182.234 3.33866C182.519 3.2341 182.838 3.18182 183.191 3.18182C183.545 3.18182 183.86 3.2341 184.137 3.33866C184.422 3.44322 184.661 3.59309 184.855 3.78826C185.056 3.98344 185.208 4.22044 185.312 4.49926C185.423 4.77808 185.479 5.08827 185.479 5.42983V8.67114C185.479 9.0127 185.423 9.32289 185.312 9.60171C185.208 9.87356 185.056 10.1071 184.855 10.3023C184.661 10.4974 184.422 10.6508 184.137 10.7623C183.853 10.8669 183.538 10.9191 183.191 10.9191C182.838 10.9191 182.519 10.8669 182.234 10.7623C181.957 10.6577 181.718 10.5079 181.517 10.3127C181.323 10.1175 181.17 9.88053 181.059 9.60171C180.955 9.32289 180.903 9.0127 180.903 8.67114V5.42983Z" fill="#0F0F0F"/>
<path d="M175.604 10.9191C175.265 10.9191 174.949 10.8738 174.658 10.7832C174.367 10.6856 174.114 10.5497 173.899 10.3754C173.691 10.1942 173.524 9.97812 173.4 9.72718C173.282 9.47624 173.219 9.19393 173.213 8.88026H174.2C174.2 9.06149 174.235 9.2253 174.304 9.37168C174.381 9.51806 174.485 9.64353 174.616 9.74809C174.748 9.85265 174.901 9.9363 175.074 9.99903C175.247 10.0548 175.431 10.0827 175.625 10.0827C176.062 10.0827 176.408 9.98161 176.665 9.77946C176.921 9.57034 177.05 9.28803 177.05 8.93254C177.05 8.6328 176.956 8.36792 176.769 8.13789C176.582 7.90089 176.311 7.71617 175.958 7.58373L175.167 7.29097C174.01 6.86576 173.431 6.16174 173.431 5.17889C173.431 4.55154 173.628 4.0636 174.024 3.71507C174.419 3.35957 174.963 3.18182 175.656 3.18182C175.982 3.18182 176.28 3.22713 176.55 3.31775C176.821 3.40837 177.053 3.54081 177.247 3.71507C177.448 3.88934 177.604 4.10194 177.715 4.35288C177.833 4.59685 177.895 4.87218 177.902 5.17889H176.914C176.914 5.00463 176.88 4.84779 176.81 4.70838C176.741 4.56199 176.648 4.44001 176.53 4.34242C176.419 4.23786 176.287 4.1577 176.135 4.10194C175.982 4.04617 175.819 4.01829 175.646 4.01829C175.251 4.01829 174.939 4.11239 174.71 4.3006C174.488 4.4888 174.377 4.74323 174.377 5.06387C174.377 5.37755 174.46 5.63895 174.627 5.84806C174.8 6.05021 175.077 6.22099 175.459 6.3604L176.29 6.66362C176.845 6.86576 177.268 7.15853 177.559 7.54191C177.85 7.92529 177.996 8.37838 177.996 8.90117C177.996 9.52852 177.781 10.0234 177.351 10.3859C176.928 10.7414 176.346 10.9191 175.604 10.9191Z" fill="#0F0F0F"/>
<path d="M158.299 10.8146V3.28638H162.718V4.14376H159.235V6.50678H162.354V7.36415H159.235V9.9572H162.718V10.8146H158.299Z" fill="#0F0F0F"/>
<path d="M152.906 3.18182C153.558 3.18182 154.081 3.36306 154.476 3.72553C154.878 4.08103 155.117 4.57942 155.194 5.22071H154.258C154.216 4.8443 154.074 4.55154 153.831 4.34242C153.596 4.12633 153.287 4.01829 152.906 4.01829C152.49 4.01829 152.161 4.14376 151.918 4.3947C151.675 4.64564 151.554 4.99068 151.554 5.42983V8.67114C151.554 9.11029 151.672 9.45533 151.908 9.70627C152.15 9.95721 152.483 10.0827 152.906 10.0827C153.287 10.0827 153.596 9.97812 153.831 9.769C154.074 9.55292 154.216 9.25667 154.258 8.88026H155.194C155.117 9.52155 154.878 10.0234 154.476 10.3859C154.081 10.7414 153.558 10.9191 152.906 10.9191C152.552 10.9191 152.234 10.8669 151.949 10.7623C151.672 10.6577 151.433 10.5079 151.232 10.3127C151.038 10.1175 150.885 9.88053 150.774 9.60171C150.67 9.32289 150.618 9.0127 150.618 8.67114V5.42983C150.618 5.08827 150.67 4.77808 150.774 4.49926C150.885 4.22044 151.038 3.98344 151.232 3.78826C151.433 3.59309 151.672 3.44322 151.949 3.33866C152.234 3.2341 152.552 3.18182 152.906 3.18182Z" fill="#0F0F0F"/>
<path d="M143.073 3.28638H145.465C145.804 3.28638 146.113 3.33866 146.39 3.44321C146.667 3.54777 146.903 3.69764 147.097 3.89282C147.298 4.08799 147.451 4.32151 147.555 4.59336C147.666 4.85824 147.721 5.15449 147.721 5.4821C147.721 6.00489 147.586 6.45101 147.316 6.82045C147.052 7.18292 146.692 7.43386 146.234 7.57327L147.825 10.8146H146.723L145.267 7.67783H144.009V10.8146H143.073V3.28638ZM144.009 6.84136H145.465C145.86 6.84136 146.172 6.71938 146.401 6.47541C146.636 6.22447 146.754 5.89337 146.754 5.4821C146.754 5.07084 146.636 4.74322 146.401 4.49925C146.165 4.24831 145.853 4.12284 145.465 4.12284H144.009V6.84136Z" fill="#0F0F0F"/>
<path d="M137.67 10.9191C136.956 10.9191 136.405 10.724 136.016 10.3336C135.628 9.94326 135.434 9.40653 135.434 8.72341V3.28638H136.37V8.72341C136.37 9.14165 136.481 9.47275 136.703 9.71672C136.925 9.96069 137.247 10.0827 137.67 10.0827C138.086 10.0827 138.405 9.96069 138.626 9.71672C138.855 9.47275 138.97 9.14165 138.97 8.72341V3.28638H139.905V8.72341C139.905 9.4135 139.711 9.95372 139.323 10.3441C138.935 10.7274 138.384 10.9191 137.67 10.9191Z" fill="#0F0F0F"/>
<path d="M128.731 8.67114C128.731 9.10331 128.852 9.44836 129.095 9.70627C129.338 9.95721 129.667 10.0827 130.083 10.0827C130.499 10.0827 130.828 9.95721 131.071 9.70627C131.313 9.44836 131.435 9.10331 131.435 8.67114V5.42983C131.435 4.99765 131.313 4.6561 131.071 4.40516C130.828 4.14725 130.499 4.01829 130.083 4.01829C129.667 4.01829 129.338 4.14725 129.095 4.40516C128.852 4.6561 128.731 4.99765 128.731 5.42983V8.67114ZM127.795 5.42983C127.795 5.08827 127.847 4.77808 127.951 4.49926C128.062 4.22044 128.215 3.98344 128.409 3.78826C128.61 3.59309 128.849 3.44322 129.126 3.33866C129.41 3.2341 129.729 3.18182 130.083 3.18182C130.436 3.18182 130.752 3.2341 131.029 3.33866C131.313 3.44322 131.553 3.59309 131.747 3.78826C131.948 3.98344 132.1 4.22044 132.204 4.49926C132.315 4.77808 132.371 5.08827 132.371 5.42983V8.67114C132.371 9.0127 132.315 9.32289 132.204 9.60171C132.1 9.87356 131.948 10.1071 131.747 10.3023C131.553 10.4974 131.313 10.6508 131.029 10.7623C130.745 10.8669 130.43 10.9191 130.083 10.9191C129.729 10.9191 129.41 10.8669 129.126 10.7623C128.849 10.6577 128.61 10.5079 128.409 10.3127C128.215 10.1175 128.062 9.88053 127.951 9.60171C127.847 9.32289 127.795 9.0127 127.795 8.67114V5.42983Z" fill="#0F0F0F"/>
<path d="M122.496 10.9191C122.156 10.9191 121.841 10.8738 121.55 10.7832C121.259 10.6856 121.006 10.5497 120.791 10.3754C120.583 10.1942 120.416 9.97812 120.292 9.72718C120.174 9.47624 120.111 9.19393 120.104 8.88026H121.092C121.092 9.06149 121.127 9.2253 121.196 9.37168C121.272 9.51806 121.376 9.64353 121.508 9.74809C121.64 9.85265 121.792 9.9363 121.966 9.99903C122.139 10.0548 122.323 10.0827 122.517 10.0827C122.954 10.0827 123.3 9.98161 123.557 9.77946C123.813 9.57034 123.941 9.28803 123.941 8.93254C123.941 8.6328 123.848 8.36792 123.661 8.13789C123.474 7.90089 123.203 7.71617 122.85 7.58373L122.059 7.29097C120.902 6.86576 120.323 6.16174 120.323 5.17889C120.323 4.55154 120.52 4.0636 120.915 3.71507C121.311 3.35957 121.855 3.18182 122.548 3.18182C122.874 3.18182 123.172 3.22713 123.442 3.31775C123.713 3.40837 123.945 3.54081 124.139 3.71507C124.34 3.88934 124.496 4.10194 124.607 4.35288C124.725 4.59685 124.787 4.87218 124.794 5.17889H123.806C123.806 5.00463 123.772 4.84779 123.702 4.70838C123.633 4.56199 123.539 4.44001 123.422 4.34242C123.311 4.23786 123.179 4.1577 123.026 4.10194C122.874 4.04617 122.711 4.01829 122.538 4.01829C122.142 4.01829 121.831 4.11239 121.602 4.3006C121.38 4.4888 121.269 4.74323 121.269 5.06387C121.269 5.37755 121.352 5.63895 121.519 5.84806C121.692 6.05021 121.969 6.22099 122.35 6.3604L123.182 6.66362C123.737 6.86576 124.16 7.15853 124.451 7.54191C124.742 7.92529 124.888 8.37838 124.888 8.90117C124.888 9.52852 124.673 10.0234 124.243 10.3859C123.82 10.7414 123.238 10.9191 122.496 10.9191Z" fill="#0F0F0F"/>
<path d="M105.087 3.28638H106.272L108.258 8.33655C108.314 8.46202 108.366 8.6084 108.414 8.77569C108.463 8.93602 108.504 9.08937 108.539 9.23575C108.587 9.41001 108.633 9.58776 108.674 9.769H108.757C108.757 9.769 108.754 9.73415 108.747 9.66444C108.74 9.58776 108.73 9.48669 108.716 9.36122C108.702 9.23575 108.688 9.09285 108.674 8.93253C108.667 8.76524 108.664 8.59097 108.664 8.40974V3.28638H109.558V10.8146H108.373L106.418 5.75395C106.362 5.59363 106.307 5.42982 106.251 5.26253C106.196 5.09524 106.151 4.94188 106.116 4.80247C106.068 4.64215 106.026 4.48183 105.991 4.3215H105.908C105.922 4.43303 105.936 4.5585 105.95 4.69792C105.957 4.81641 105.964 4.95931 105.97 5.1266C105.977 5.28693 105.981 5.46816 105.981 5.67031V10.8146H105.087V3.28638Z" fill="#0F0F0F"/>
<path d="M97.6037 10.8146V3.28638H102.023V4.14376H98.5396V6.50678H101.659V7.36415H98.5396V9.9572H102.023V10.8146H97.6037Z" fill="#0F0F0F"/>
<path d="M92.4917 3.28638C92.8314 3.28638 93.1399 3.33866 93.4172 3.44321C93.6945 3.54777 93.9302 3.69764 94.1243 3.89282C94.3253 4.08799 94.4778 4.32151 94.5818 4.59336C94.6927 4.85824 94.7482 5.15449 94.7482 5.4821C94.7482 5.80972 94.6927 6.10945 94.5818 6.38131C94.4709 6.64619 94.3149 6.87622 94.1139 7.07139C93.9198 7.26657 93.6841 7.41643 93.4068 7.52099C93.1295 7.62555 92.8244 7.67783 92.4917 7.67783H90.9007V10.8146H89.9648V3.28638H92.4917ZM90.9007 4.12284V6.84136H92.4917C92.8799 6.84136 93.1919 6.71938 93.4276 6.47541C93.6633 6.22447 93.7811 5.89337 93.7811 5.4821C93.7811 5.07084 93.6633 4.74322 93.4276 4.49925C93.1919 4.24831 92.8799 4.12284 92.4917 4.12284H90.9007Z" fill="#0F0F0F"/>
<path d="M83.2099 8.67114C83.2099 9.10331 83.3312 9.44836 83.5738 9.70627C83.8164 9.95721 84.1457 10.0827 84.5617 10.0827C84.9776 10.0827 85.3069 9.95721 85.5495 9.70627C85.7922 9.44836 85.9135 9.10331 85.9135 8.67114V5.42983C85.9135 4.99765 85.7922 4.6561 85.5495 4.40516C85.3069 4.14725 84.9776 4.01829 84.5617 4.01829C84.1457 4.01829 83.8164 4.14725 83.5738 4.40516C83.3312 4.6561 83.2099 4.99765 83.2099 5.42983V8.67114ZM82.274 5.42983C82.274 5.08827 82.326 4.77808 82.43 4.49926C82.5409 4.22044 82.6934 3.98344 82.8875 3.78826C83.0885 3.59309 83.3277 3.44322 83.605 3.33866C83.8892 3.2341 84.2081 3.18182 84.5617 3.18182C84.9152 3.18182 85.2306 3.2341 85.5079 3.33866C85.7922 3.44322 86.0313 3.59309 86.2254 3.78826C86.4265 3.98344 86.579 4.22044 86.683 4.49926C86.7939 4.77808 86.8493 5.08827 86.8493 5.42983V8.67114C86.8493 9.0127 86.7939 9.32289 86.683 9.60171C86.579 9.87356 86.4265 10.1071 86.2254 10.3023C86.0313 10.4974 85.7922 10.6508 85.5079 10.7623C85.2237 10.8669 84.9083 10.9191 84.5617 10.9191C84.2081 10.9191 83.8892 10.8669 83.605 10.7623C83.3277 10.6577 83.0885 10.5079 82.8875 10.3127C82.6934 10.1175 82.5409 9.88053 82.43 9.60171C82.326 9.32289 82.274 9.0127 82.274 8.67114V5.42983Z" fill="#0F0F0F"/>
<path d="M221.293 26.795L225.256 38.1695L223.551 41.5995L217.857 26.795H221.293ZM218.183 45.1051V42.4065H220.089C220.49 42.4065 220.842 42.3561 221.143 42.2552C221.444 42.1711 221.711 42.003 221.945 41.7508C222.179 41.4986 222.38 41.1371 222.547 40.6663L227.664 26.795H231L224.88 42.0282C224.412 43.222 223.826 44.0795 223.124 44.6007C222.422 45.1388 221.561 45.4078 220.541 45.4078C220.106 45.4078 219.696 45.3826 219.312 45.3321C218.927 45.2817 218.551 45.206 218.183 45.1051Z" fill="#0F0F0F"/>
<path d="M209.496 26.795H217.447V29.4936H209.496V26.795ZM217.422 36.4545L217.798 39.0774C217.079 39.4137 216.268 39.5818 215.365 39.5818C214.562 39.5818 213.86 39.4389 213.258 39.1531C212.673 38.8504 212.213 38.388 211.878 37.7659C211.561 37.127 211.402 36.2947 211.402 35.2691V22.911H214.612V34.6638C214.612 35.4204 214.755 35.9501 215.039 36.2527C215.34 36.5385 215.716 36.6815 216.168 36.6815C216.552 36.6815 216.97 36.6058 217.422 36.4545Z" fill="#0F0F0F"/>
<path d="M204.882 39.2792V26.795H208.093V39.2792H204.882ZM206.487 24.399C205.936 24.399 205.476 24.2141 205.108 23.8442C204.74 23.4575 204.556 23.0035 204.556 22.4823C204.556 21.9274 204.74 21.465 205.108 21.0951C205.476 20.7252 205.936 20.5403 206.487 20.5403C207.006 20.5403 207.449 20.7252 207.817 21.0951C208.201 21.465 208.394 21.9274 208.394 22.4823C208.394 23.0035 208.201 23.4575 207.817 23.8442C207.449 24.2141 207.006 24.399 206.487 24.399Z" fill="#0F0F0F"/>
<path d="M202.226 39.2792H199.016V20.4646H202.226V39.2792Z" fill="#0F0F0F"/>
<path d="M193.148 39.2792V26.795H196.359V39.2792H193.148ZM194.754 24.399C194.202 24.399 193.742 24.2141 193.374 23.8442C193.006 23.4575 192.822 23.0035 192.822 22.4823C192.822 21.9274 193.006 21.465 193.374 21.0951C193.742 20.7252 194.202 20.5403 194.754 20.5403C195.272 20.5403 195.715 20.7252 196.083 21.0951C196.468 21.465 196.66 21.9274 196.66 22.4823C196.66 23.0035 196.468 23.4575 196.083 23.8442C195.715 24.2141 195.272 24.399 194.754 24.399Z" fill="#0F0F0F"/>
<path d="M181.007 39.2792H178.022V20.4646H181.233V28.5352C181.634 27.8626 182.22 27.3414 182.989 26.9715C183.758 26.5848 184.619 26.3914 185.572 26.3914C186.743 26.3914 187.754 26.6773 188.607 27.2489C189.46 27.8206 190.112 28.6108 190.564 29.6197C191.032 30.6285 191.266 31.797 191.266 33.1253C191.266 34.4032 191.015 35.5297 190.513 36.5049C190.029 37.4801 189.343 38.2451 188.457 38.8C187.57 39.338 186.534 39.607 185.347 39.607C184.427 39.607 183.599 39.4137 182.863 39.027C182.128 38.6234 181.576 38.077 181.208 37.3876L181.007 39.2792ZM181.258 32.974C181.258 33.697 181.4 34.3359 181.684 34.8908C181.969 35.4456 182.362 35.8828 182.863 36.2022C183.382 36.5049 183.984 36.6562 184.669 36.6562C185.372 36.6562 185.974 36.4965 186.475 36.177C186.977 35.8576 187.361 35.4288 187.629 34.8908C187.897 34.3359 188.03 33.697 188.03 32.974C188.03 32.251 187.897 31.6205 187.629 31.0825C187.361 30.5276 186.977 30.0989 186.475 29.7962C185.974 29.4768 185.372 29.317 184.669 29.317C183.984 29.317 183.382 29.4683 182.863 29.771C182.362 30.0736 181.969 30.5024 181.684 31.0572C181.4 31.6121 181.258 32.251 181.258 32.974Z" fill="#0F0F0F"/>
<path d="M168.421 39.607C167.1 39.607 166.055 39.2539 165.286 38.5477C164.534 37.8247 164.157 36.8748 164.157 35.6978C164.157 34.5545 164.55 33.6381 165.336 32.9488C166.139 32.2594 167.284 31.8559 168.773 31.7382L172.435 31.4607V31.1833C172.435 30.6453 172.334 30.2081 172.134 29.8718C171.933 29.5356 171.649 29.2918 171.281 29.1404C170.913 28.9891 170.478 28.9135 169.977 28.9135C169.074 28.9135 168.388 29.09 167.92 29.4431C167.452 29.7794 167.217 30.2754 167.217 30.9311H164.483C164.483 30.0064 164.718 29.2077 165.186 28.5352C165.654 27.8626 166.314 27.3414 167.167 26.9715C168.02 26.6016 169.007 26.4166 170.127 26.4166C171.264 26.4166 172.234 26.6184 173.037 27.0219C173.856 27.4254 174.483 28.0223 174.918 28.8126C175.353 29.6028 175.57 30.5864 175.57 31.7634V39.2791H172.761L172.51 37.4632C172.259 38.1022 171.749 38.6234 170.98 39.0269C170.227 39.4136 169.375 39.607 168.421 39.607ZM169.475 37.1606C170.378 37.1606 171.097 36.9168 171.632 36.4292C172.184 35.9248 172.46 35.2186 172.46 34.3107V33.6297L170.002 33.8567C169.065 33.924 168.396 34.1005 167.995 34.3863C167.61 34.6722 167.418 35.0589 167.418 35.5465C167.418 36.1013 167.594 36.5133 167.945 36.7823C168.313 37.0345 168.823 37.1606 169.475 37.1606Z" fill="#0F0F0F"/>
<path d="M153.553 39.2791H150.343V26.7949H153.327L153.578 28.3586C153.98 27.7365 154.523 27.2573 155.209 26.921C155.911 26.5848 156.68 26.4166 157.516 26.4166C159.071 26.4166 160.242 26.879 161.028 27.8038C161.83 28.7117 162.232 29.9727 162.232 31.5868V39.2791H159.021V32.3435C159.021 31.3683 158.787 30.6285 158.319 30.1241C157.867 29.6028 157.257 29.3422 156.488 29.3422C155.585 29.3422 154.866 29.6365 154.331 30.2249C153.812 30.7966 153.553 31.5616 153.553 32.52V39.2791Z" fill="#0F0F0F"/>
<path d="M144.5 39.2792V26.795H147.711V39.2792H144.5ZM146.106 24.399C145.554 24.399 145.094 24.2141 144.726 23.8442C144.358 23.4575 144.174 23.0035 144.174 22.4823C144.174 21.9274 144.358 21.465 144.726 21.0951C145.094 20.7252 145.554 20.5403 146.106 20.5403C146.624 20.5403 147.067 20.7252 147.435 21.0951C147.819 21.465 148.012 21.9274 148.012 22.4823C148.012 23.0035 147.819 23.4575 147.435 23.8442C147.067 24.2141 146.624 24.399 146.106 24.399Z" fill="#0F0F0F"/>
<path d="M134.899 39.607C133.578 39.607 132.533 39.2539 131.764 38.5477C131.011 37.8247 130.635 36.8748 130.635 35.6978C130.635 34.5545 131.028 33.6381 131.814 32.9488C132.617 32.2594 133.762 31.8559 135.25 31.7382L138.912 31.4607V31.1833C138.912 30.6453 138.812 30.2081 138.611 29.8718C138.411 29.5356 138.126 29.2918 137.759 29.1404C137.391 28.9891 136.956 28.9135 136.454 28.9135C135.551 28.9135 134.866 29.09 134.398 29.4431C133.929 29.7794 133.695 30.2754 133.695 30.9311H130.961C130.961 30.0064 131.195 29.2077 131.664 28.5352C132.132 27.8626 132.792 27.3414 133.645 26.9715C134.498 26.6016 135.484 26.4166 136.605 26.4166C137.742 26.4166 138.712 26.6184 139.514 27.0219C140.334 27.4254 140.961 28.0223 141.396 28.8126C141.83 29.6028 142.048 30.5864 142.048 31.7634V39.2791H139.238L138.988 37.4632C138.737 38.1022 138.227 38.6234 137.458 39.0269C136.705 39.4136 135.852 39.607 134.899 39.607ZM135.953 37.1606C136.856 37.1606 137.575 36.9168 138.11 36.4292C138.662 35.9248 138.937 35.2186 138.937 34.3107V33.6297L136.479 33.8567C135.543 33.924 134.874 34.1005 134.473 34.3863C134.088 34.6722 133.896 35.0589 133.896 35.5465C133.896 36.1013 134.071 36.5133 134.423 36.7823C134.791 37.0345 135.301 37.1606 135.953 37.1606Z" fill="#0F0F0F"/>
<path d="M121.47 26.795H129.421V29.4936H121.47V26.795ZM129.396 36.4545L129.772 39.0774C129.053 39.4137 128.242 39.5818 127.339 39.5818C126.537 39.5818 125.834 39.4389 125.232 39.1531C124.647 38.8504 124.187 38.388 123.853 37.7659C123.535 37.127 123.376 36.2947 123.376 35.2691V22.911H126.587V34.6638C126.587 35.4204 126.729 35.9501 127.013 36.2527C127.314 36.5385 127.691 36.6815 128.142 36.6815C128.527 36.6815 128.945 36.6058 129.396 36.4545Z" fill="#0F0F0F"/>
<path d="M110.589 35.4708H113.624C113.657 35.992 113.858 36.404 114.226 36.7066C114.594 36.9925 115.112 37.1354 115.781 37.1354C116.483 37.1354 117.01 37.0093 117.361 36.7571C117.729 36.5049 117.913 36.1686 117.913 35.7482C117.913 35.4624 117.821 35.2102 117.637 34.9916C117.453 34.773 117.085 34.5965 116.533 34.462L114.301 33.9576C113.181 33.7054 112.345 33.3018 111.793 32.747C111.241 32.1753 110.965 31.3767 110.965 30.351C110.965 29.5272 111.174 28.821 111.592 28.2325C112.027 27.644 112.621 27.1985 113.373 26.8958C114.125 26.5764 114.978 26.4166 115.931 26.4166C116.868 26.4166 117.687 26.5848 118.389 26.921C119.109 27.2573 119.669 27.7281 120.07 28.3334C120.471 28.9387 120.672 29.6617 120.672 30.5024H117.612C117.612 29.9811 117.453 29.5692 117.135 29.2666C116.818 28.9639 116.375 28.8126 115.806 28.8126C115.237 28.8126 114.794 28.9387 114.477 29.1909C114.159 29.4431 114 29.7878 114 30.2249C114 30.8807 114.518 31.3346 115.555 31.5868L117.813 32.0913C118.849 32.3266 119.627 32.7134 120.145 33.2514C120.68 33.7726 120.948 34.5124 120.948 35.4708C120.948 36.3115 120.722 37.0429 120.271 37.665C119.836 38.2871 119.217 38.7663 118.415 39.1026C117.629 39.4389 116.717 39.607 115.681 39.607C114.125 39.607 112.888 39.2287 111.968 38.4721C111.049 37.6986 110.589 36.6982 110.589 35.4708Z" fill="#0F0F0F"/>
<path d="M105.945 26.795H109.155V39.2792H106.171L105.92 37.6651C105.552 38.2367 105 38.7075 104.264 39.0774C103.545 39.4305 102.776 39.607 101.957 39.607C100.535 39.607 99.4151 39.1615 98.5957 38.2703C97.7931 37.3624 97.3918 36.135 97.3918 34.5881V26.795H100.627V33.4532C100.627 34.5966 100.845 35.4288 101.28 35.9501C101.714 36.4713 102.35 36.7319 103.186 36.7319C104.122 36.7319 104.816 36.4545 105.268 35.8996C105.719 35.3448 105.945 34.4873 105.945 33.3271V26.795Z" fill="#0F0F0F"/>
<path d="M82.5248 26.0131C82.5248 24.9202 82.8007 23.9619 83.3525 23.138C83.9211 22.2973 84.6986 21.6416 85.6852 21.1708C86.6885 20.7 87.8339 20.4646 89.1215 20.4646C90.3756 20.4646 91.4625 20.6916 92.3822 21.1456C93.3019 21.5827 94.0209 22.2132 94.5393 23.0371C95.0576 23.8442 95.3252 24.8109 95.3419 25.9375H91.9809C91.9474 25.164 91.6715 24.5671 91.1532 24.1468C90.6515 23.7096 89.9576 23.4911 89.0713 23.4911C88.1182 23.4911 87.349 23.7096 86.7637 24.1468C86.1952 24.5671 85.9109 25.1472 85.9109 25.887C85.9109 26.5259 86.0865 27.0304 86.4377 27.4003C86.7888 27.7702 87.3323 28.0308 88.068 28.1821L90.9525 28.8378C92.5243 29.1741 93.6948 29.7542 94.464 30.5781C95.2499 31.3851 95.6429 32.4948 95.6429 33.9072C95.6429 35.0505 95.3586 36.0509 94.7901 36.9084C94.2383 37.7659 93.4524 38.4301 92.4324 38.9008C91.4291 39.3716 90.2418 39.607 88.8707 39.607C87.5664 39.607 86.4209 39.3884 85.4344 38.9513C84.4478 38.4973 83.6786 37.8584 83.1268 37.0345C82.5917 36.2107 82.3074 35.2439 82.274 34.1342H85.6601C85.6601 34.8908 85.9444 35.4877 86.5129 35.9248C87.0982 36.362 87.8924 36.5806 88.8957 36.5806C89.9325 36.5806 90.7518 36.3704 91.3538 35.95C91.9725 35.5129 92.2819 34.9328 92.2819 34.2098C92.2819 33.6045 92.1146 33.1253 91.7802 32.7722C91.4625 32.4023 90.9441 32.1417 90.2251 31.9904L87.3406 31.3599C85.7521 31.0236 84.5481 30.4099 83.7288 29.5188C82.9261 28.6108 82.5248 27.4423 82.5248 26.0131Z" fill="#0F0F0F"/>
<path d="M111.213 65.8132H108.229V46.9987H111.439V55.0692C111.84 54.3967 112.426 53.8755 113.195 53.5056C113.964 53.1189 114.825 52.9255 115.778 52.9255C116.949 52.9255 117.961 53.2113 118.813 53.783C119.666 54.3547 120.318 55.1449 120.77 56.1537C121.238 57.1626 121.472 58.3311 121.472 59.6594C121.472 60.9372 121.221 62.0638 120.72 63.0389C120.235 64.0141 119.549 64.7792 118.663 65.334C117.777 65.8721 116.74 66.1411 115.553 66.1411C114.633 66.1411 113.805 65.9477 113.069 65.561C112.334 65.1575 111.782 64.611 111.414 63.9217L111.213 65.8132ZM111.464 59.5081C111.464 60.2311 111.606 60.87 111.891 61.4248C112.175 61.9797 112.568 62.4168 113.069 62.7363C113.588 63.039 114.19 63.1903 114.875 63.1903C115.578 63.1903 116.18 63.0305 116.681 62.7111C117.183 62.3916 117.568 61.9629 117.835 61.4248C118.103 60.87 118.236 60.2311 118.236 59.5081C118.236 58.7851 118.103 58.1546 117.835 57.6165C117.568 57.0617 117.183 56.6329 116.681 56.3303C116.18 56.0108 115.578 55.8511 114.875 55.8511C114.19 55.8511 113.588 56.0024 113.069 56.3051C112.568 56.6077 112.175 57.0365 111.891 57.5913C111.606 58.1462 111.464 58.7851 111.464 59.5081Z" fill="#0F0F0F"/>
<path d="M98.6275 66.1411C97.3065 66.1411 96.2614 65.788 95.4922 65.0818C94.7398 64.3589 94.3635 63.4089 94.3635 62.2319C94.3635 61.0886 94.7565 60.1722 95.5424 59.4829C96.345 58.7935 97.4905 58.39 98.9787 58.2723L102.641 57.9949V57.7174C102.641 57.1794 102.54 56.7422 102.34 56.406C102.139 56.0697 101.855 55.8259 101.487 55.6746C101.119 55.5232 100.684 55.4476 100.183 55.4476C99.2797 55.4476 98.5941 55.6241 98.1259 55.9772C97.6577 56.3135 97.4236 56.8095 97.4236 57.4652H94.6896C94.6896 56.5405 94.9237 55.7418 95.3919 55.0693C95.8601 54.3967 96.5206 53.8755 97.3734 53.5056C98.2262 53.1357 99.2128 52.9507 100.333 52.9507C101.47 52.9507 102.44 53.1525 103.243 53.556C104.062 53.9596 104.689 54.5565 105.124 55.3467C105.559 56.1369 105.776 57.1205 105.776 58.2975V65.8132H102.967L102.716 63.9974C102.465 64.6363 101.955 65.1575 101.186 65.561C100.433 65.9478 99.5807 66.1411 98.6275 66.1411ZM99.681 63.6947C100.584 63.6947 101.303 63.4509 101.838 62.9633C102.39 62.4589 102.666 61.7527 102.666 60.8448V60.1638L100.208 60.3908C99.2713 60.4581 98.6024 60.6346 98.2011 60.9204C97.8165 61.2063 97.6242 61.593 97.6242 62.0806C97.6242 62.6354 97.7998 63.0474 98.151 63.3164C98.5188 63.5686 99.0288 63.6947 99.681 63.6947Z" fill="#0F0F0F"/>
<path d="M85.6601 47.3265V65.8132H82.274V47.3265H85.6601ZM82.876 65.8132V62.6607H93.2601V65.8132H82.876Z" fill="#0F0F0F"/>
</svg>
