<svg width="306" height="66" viewBox="0 0 306 66" fill="none" xmlns="http://www.w3.org/2000/svg">
<g clip-path="url(#clip0_82_954)">
<path d="M44.7581 46.4388C45.5638 47.2426 46.6572 47.6943 47.797 47.6943L58.4603 47.6986C60.4898 47.6994 62.1346 49.3408 62.1346 51.3653V62.3316C62.1346 64.3572 60.488 65.9992 58.4572 65.9984L47.459 65.993C45.4286 65.992 43.7837 64.3492 43.7851 62.3236L43.7928 51.6718C43.7928 50.695 43.2265 49.3309 42.534 48.6401L42.3854 48.4919C41.5792 47.6877 40.4863 47.2358 39.3465 47.2358H14.7582C13.934 47.2358 13.1433 47.5629 12.5605 48.1441C12.0063 48.6971 11.6949 49.4466 11.6949 50.2287V55.03C11.6949 57.0549 10.0492 58.6967 8.01922 58.6967H3.68202C1.65313 58.6967 0.0079409 57.0568 0.00634325 55.0329L0.00293085 50.7101C0.00133143 48.6839 1.64746 47.0405 3.67861 47.0405H8.42773C9.25655 47.0405 10.051 46.7123 10.6367 46.128L10.771 45.994C11.3232 45.4433 11.6334 44.6962 11.6334 43.9174L11.6276 19.116C11.6271 17.0906 13.2729 15.4484 15.3033 15.4484H39.8069C41.48 15.4484 42.8363 14.0955 42.8363 12.4264V3.66739C42.8363 1.64207 44.4823 0.000327913 46.5127 0.000732497L55.1228 0.00244826C57.1532 0.00285286 58.7986 1.64539 58.7977 3.6708L58.7938 12.2586C58.7928 14.2791 57.154 15.918 55.1284 15.9191L54.0276 15.9194H46.6894C44.9277 15.9194 43.499 17.1187 43.499 19.1018V43.4072C43.499 44.5442 43.9518 45.6345 44.7581 46.4388Z" fill="#0F0F0F"/>
<path d="M120.727 24.9975C119.916 24.9975 119.163 24.8903 118.469 24.6758C117.774 24.4448 117.17 24.123 116.658 23.7105C116.161 23.2815 115.764 22.77 115.467 22.176C115.185 21.582 115.037 20.9138 115.02 20.1712H117.377C117.377 20.6002 117.46 20.988 117.625 21.3345C117.807 21.681 118.055 21.978 118.369 22.2255C118.684 22.473 119.048 22.671 119.461 22.8195C119.875 22.9515 120.313 23.0175 120.776 23.0175C121.818 23.0175 122.645 22.7783 123.257 22.2998C123.869 21.8048 124.175 21.1365 124.175 20.295C124.175 19.5855 123.952 18.9585 123.505 18.414C123.059 17.853 122.414 17.4157 121.57 17.1022L119.684 16.4092C116.922 15.4027 115.541 13.7362 115.541 11.4097C115.541 9.92475 116.012 8.76975 116.955 7.94475C117.898 7.10325 119.197 6.6825 120.851 6.6825C121.628 6.6825 122.339 6.78974 122.984 7.00424C123.629 7.21874 124.183 7.53225 124.647 7.94475C125.126 8.35725 125.498 8.8605 125.763 9.4545C126.044 10.032 126.193 10.6837 126.21 11.4097H123.853C123.853 10.9972 123.77 10.626 123.605 10.296C123.439 9.9495 123.216 9.66075 122.935 9.42975C122.67 9.18225 122.356 8.9925 121.992 8.8605C121.628 8.7285 121.239 8.66249 120.826 8.66249C119.883 8.66249 119.139 8.88525 118.593 9.33075C118.063 9.77625 117.799 10.3785 117.799 11.1375C117.799 11.88 117.997 12.4987 118.394 12.9937C118.808 13.4722 119.469 13.8765 120.379 14.2065L122.364 14.9242C123.687 15.4027 124.696 16.0957 125.391 17.0032C126.086 17.9107 126.433 18.9832 126.433 20.2207C126.433 21.7058 125.92 22.8773 124.895 23.7353C123.886 24.5768 122.496 24.9975 120.727 24.9975Z" fill="#0F0F0F"/>
<path d="M103.369 24.9975C102.558 24.9975 101.806 24.8903 101.111 24.6758C100.416 24.4448 99.8124 24.123 99.2997 23.7105C98.8035 23.2815 98.4065 22.77 98.1088 22.176C97.8276 21.582 97.6787 20.9138 97.6622 20.1712H100.019C100.019 20.6002 100.102 20.988 100.267 21.3345C100.449 21.681 100.697 21.978 101.012 22.2255C101.326 22.473 101.69 22.671 102.103 22.8195C102.517 22.9515 102.955 23.0175 103.418 23.0175C104.46 23.0175 105.287 22.7783 105.899 22.2998C106.511 21.8048 106.817 21.1365 106.817 20.295C106.817 19.5855 106.594 18.9585 106.147 18.414C105.701 17.853 105.056 17.4157 104.212 17.1022L102.327 16.4092C99.5643 15.4027 98.1832 13.7362 98.1832 11.4097C98.1832 9.92475 98.6546 8.76975 99.5974 7.94475C100.54 7.10325 101.839 6.6825 103.493 6.6825C104.27 6.6825 104.981 6.78974 105.626 7.00424C106.272 7.21874 106.826 7.53225 107.289 7.94475C107.768 8.35725 108.141 8.8605 108.405 9.4545C108.686 10.032 108.835 10.6837 108.852 11.4097H106.495C106.495 10.9972 106.412 10.626 106.247 10.296C106.081 9.9495 105.858 9.66075 105.577 9.42975C105.312 9.18225 104.998 8.9925 104.634 8.8605C104.27 8.7285 103.881 8.66249 103.468 8.66249C102.525 8.66249 101.781 8.88525 101.235 9.33075C100.706 9.77625 100.441 10.3785 100.441 11.1375C100.441 11.88 100.639 12.4987 101.036 12.9937C101.45 13.4722 102.112 13.8765 103.021 14.2065L105.006 14.9242C106.329 15.4027 107.338 16.0957 108.033 17.0032C108.728 17.9107 109.075 18.9832 109.075 20.2207C109.075 21.7058 108.562 22.8773 107.537 23.7353C106.528 24.5768 105.138 24.9975 103.369 24.9975Z" fill="#0F0F0F"/>
<path d="M82.7854 19.6762C82.7854 20.6993 83.0749 21.516 83.6538 22.1265C84.2327 22.7205 85.0184 23.0175 86.0108 23.0175C87.0032 23.0175 87.7889 22.7205 88.3678 22.1265C88.9468 21.516 89.2362 20.6993 89.2362 19.6762V12.0037C89.2362 10.9807 88.9468 10.1722 88.3678 9.57825C87.7889 8.96775 87.0032 8.66249 86.0108 8.66249C85.0184 8.66249 84.2327 8.96775 83.6538 9.57825C83.0749 10.1722 82.7854 10.9807 82.7854 12.0037V19.6762ZM80.5524 12.0037C80.5524 11.1952 80.6765 10.461 80.9246 9.80099C81.1892 9.14099 81.5531 8.58 82.0163 8.118C82.4959 7.656 83.0666 7.30125 83.7282 7.05375C84.4064 6.80625 85.1672 6.6825 86.0108 6.6825C86.8544 6.6825 87.607 6.80625 88.2686 7.05375C88.9468 7.30125 89.5174 7.656 89.9805 8.118C90.4602 8.58 90.8241 9.14099 91.0722 9.80099C91.3369 10.461 91.4692 11.1952 91.4692 12.0037V19.6762C91.4692 20.4847 91.3369 21.219 91.0722 21.879C90.8241 22.5225 90.4602 23.0753 89.9805 23.5373C89.5174 23.9993 88.9468 24.3623 88.2686 24.6263C87.5904 24.8738 86.8378 24.9975 86.0108 24.9975C85.1672 24.9975 84.4064 24.8738 83.7282 24.6263C83.0666 24.3788 82.4959 24.024 82.0163 23.562C81.5531 23.1 81.1892 22.539 80.9246 21.879C80.6765 21.219 80.5524 20.4847 80.5524 19.6762V12.0037Z" fill="#0F0F0F"/>
<path d="M293.518 57.75H290.073V36.2092H293.779V45.4492C294.242 44.6791 294.918 44.0824 295.805 43.659C296.694 43.2162 297.686 42.9949 298.786 42.9949C300.138 42.9949 301.305 43.322 302.289 43.9766C303.273 44.631 304.025 45.5359 304.546 46.6909C305.088 47.8459 305.357 49.1836 305.357 50.7045C305.357 52.1674 305.067 53.4571 304.489 54.5737C303.93 55.6902 303.138 56.5661 302.115 57.2014C301.094 57.8172 299.896 58.1254 298.526 58.1254C297.465 58.1254 296.51 57.9038 295.66 57.4612C294.812 56.9992 294.176 56.3735 293.75 55.5844L293.518 57.75ZM293.808 50.5312C293.808 51.3589 293.973 52.0905 294.3 52.7257C294.628 53.361 295.081 53.8613 295.66 54.2272C296.26 54.5737 296.954 54.747 297.744 54.747C298.555 54.747 299.249 54.564 299.828 54.1984C300.407 53.8325 300.852 53.3416 301.16 52.7257C301.47 52.0905 301.623 51.3589 301.623 50.5312C301.623 49.7033 301.47 48.9815 301.16 48.3656C300.852 47.7304 300.407 47.2395 299.828 46.893C299.249 46.5271 298.555 46.3444 297.744 46.3444C296.954 46.3444 296.26 46.5176 295.66 46.8641C295.081 47.2106 294.628 47.7015 294.3 48.3367C293.973 48.972 293.808 49.7033 293.808 50.5312Z" fill="#0F0F0F"/>
<path d="M278.995 58.1254C277.47 58.1254 276.264 57.7212 275.377 56.9127C274.509 56.085 274.075 54.9972 274.075 53.6498C274.075 52.3407 274.527 51.2917 275.435 50.5024C276.361 49.7131 277.683 49.2511 279.401 49.1164L283.627 48.7988V48.4812C283.627 47.8651 283.511 47.3647 283.28 46.9797C283.048 46.5946 282.719 46.3156 282.295 46.1423C281.869 45.9691 281.369 45.8824 280.79 45.8824C279.748 45.8824 278.956 46.0846 278.417 46.4888C277.875 46.8739 277.606 47.4417 277.606 48.1924H274.451C274.451 47.1337 274.72 46.2192 275.261 45.4493C275.801 44.6794 276.564 44.0825 277.548 43.6591C278.532 43.2356 279.67 43.0238 280.964 43.0238C282.275 43.0238 283.395 43.2548 284.322 43.7168C285.266 44.1788 285.99 44.8621 286.493 45.7669C286.993 46.6717 287.245 47.7979 287.245 49.1453V57.7501H284.003L283.714 55.6711C283.424 56.4026 282.835 56.9993 281.948 57.4613C281.08 57.9041 280.095 58.1254 278.995 58.1254ZM280.211 55.3246C281.253 55.3246 282.082 55.0455 282.701 54.4872C283.337 53.9097 283.656 53.1012 283.656 52.0617V51.2821L280.819 51.5419C279.738 51.6189 278.967 51.821 278.503 52.1483C278.059 52.4756 277.838 52.9182 277.838 53.4766C277.838 54.1118 278.04 54.5835 278.446 54.8914C278.869 55.1802 279.459 55.3246 280.211 55.3246Z" fill="#0F0F0F"/>
<path d="M264.03 36.5846V57.75H260.123V36.5846H264.03ZM260.817 57.75V54.1406H272.801V57.75H260.817Z" fill="#0F0F0F"/>
<path d="M239.811 43.4569L244.384 56.4795L242.416 60.4065L235.845 43.4569H239.811ZM236.222 64.4202V61.3305H238.422C238.885 61.3305 239.29 61.2728 239.637 61.1573C239.985 61.061 240.293 60.8685 240.564 60.5798C240.834 60.291 241.066 59.8771 241.258 59.3382L247.163 43.4569H251.013L243.95 60.8974C243.411 62.2642 242.734 63.246 241.924 63.8427C241.114 64.4587 240.119 64.7667 238.943 64.7667C238.44 64.7667 237.969 64.7378 237.524 64.68C237.08 64.6223 236.645 64.5357 236.222 64.4202Z" fill="#0F0F0F"/>
<path d="M226.196 43.4569H235.372V46.5465H226.196V43.4569ZM235.343 54.516L235.777 57.519C234.948 57.9041 234.011 58.0965 232.969 58.0965C232.043 58.0965 231.233 57.933 230.538 57.6056C229.862 57.2591 229.333 56.7297 228.946 56.0175C228.58 55.2859 228.396 54.3331 228.396 53.1589V39.0101H232.101V52.4659C232.101 53.3321 232.264 53.9385 232.593 54.285C232.94 54.6123 233.375 54.7759 233.896 54.7759C234.34 54.7759 234.822 54.6893 235.343 54.516Z" fill="#0F0F0F"/>
<path d="M220.872 57.75V43.4569H224.577V57.75H220.872ZM222.725 40.7138C222.088 40.7138 221.556 40.5022 221.133 40.0785C220.709 39.6359 220.496 39.1162 220.496 38.5193C220.496 37.884 220.709 37.3548 221.133 36.9311C221.556 36.5077 222.088 36.2959 222.725 36.2959C223.322 36.2959 223.835 36.5077 224.259 36.9311C224.703 37.3548 224.924 37.884 224.924 38.5193C224.924 39.1162 224.703 39.6359 224.259 40.0785C223.835 40.5022 223.322 40.7138 222.725 40.7138Z" fill="#0F0F0F"/>
<path d="M217.808 57.75H214.103V36.2092H217.808V57.75Z" fill="#0F0F0F"/>
<path d="M207.332 57.75V43.4569H211.037V57.75H207.332ZM209.184 40.7138C208.547 40.7138 208.016 40.5022 207.592 40.0785C207.166 39.6359 206.955 39.1162 206.955 38.5193C206.955 37.884 207.166 37.3548 207.592 36.9311C208.016 36.5077 208.547 36.2959 209.184 36.2959C209.782 36.2959 210.292 36.5077 210.718 36.9311C211.161 37.3548 211.384 37.884 211.384 38.5193C211.384 39.1162 211.161 39.6359 210.718 40.0785C210.292 40.5022 209.782 40.7138 209.184 40.7138Z" fill="#0F0F0F"/>
<path d="M193.32 57.75H189.875V36.2092H193.58V45.4492C194.043 44.6791 194.719 44.0824 195.606 43.659C196.494 43.2162 197.488 42.9949 198.588 42.9949C199.939 42.9949 201.106 43.322 202.09 43.9766C203.074 44.631 203.827 45.5359 204.348 46.6909C204.888 47.8459 205.159 49.1836 205.159 50.7045C205.159 52.1674 204.869 53.4571 204.29 54.5737C203.731 55.6902 202.939 56.5661 201.917 57.2014C200.894 57.8172 199.697 58.1254 198.327 58.1254C197.266 58.1254 196.311 57.9038 195.462 57.4612C194.613 56.9992 193.976 56.3735 193.551 55.5844L193.32 57.75ZM193.609 50.5312C193.609 51.3589 193.773 52.0905 194.101 52.7257C194.429 53.361 194.883 53.8613 195.462 54.2272C196.06 54.5737 196.755 54.747 197.546 54.747C198.356 54.747 199.051 54.564 199.63 54.1984C200.209 53.8325 200.653 53.3416 200.961 52.7257C201.27 52.0905 201.424 51.3589 201.424 50.5312C201.424 49.7033 201.27 48.9815 200.961 48.3656C200.653 47.7304 200.209 47.2395 199.63 46.893C199.051 46.5271 198.356 46.3444 197.546 46.3444C196.755 46.3444 196.06 46.5176 195.462 46.8641C194.883 47.2106 194.429 47.7015 194.101 48.3367C193.773 48.972 193.609 49.7033 193.609 50.5312Z" fill="#0F0F0F"/>
<path d="M178.795 58.1254C177.271 58.1254 176.065 57.7212 175.177 56.9127C174.309 56.085 173.874 54.9972 173.874 53.6498C173.874 52.3407 174.328 51.2917 175.235 50.5024C176.161 49.7131 177.483 49.2511 179.2 49.1164L183.427 48.7988V48.4812C183.427 47.8651 183.311 47.3647 183.079 46.9797C182.848 46.5946 182.52 46.3156 182.095 46.1423C181.671 45.9691 181.169 45.8824 180.59 45.8824C179.548 45.8824 178.757 46.0846 178.216 46.4888C177.676 46.8739 177.406 47.4417 177.406 48.1924H174.251C174.251 47.1337 174.521 46.2192 175.061 45.4493C175.601 44.6794 176.364 44.0825 177.348 43.6591C178.332 43.2356 179.471 43.0238 180.764 43.0238C182.076 43.0238 183.195 43.2548 184.121 43.7168C185.067 44.1788 185.79 44.8621 186.292 45.7669C186.794 46.6717 187.045 47.7979 187.045 49.1453V57.7501H183.803L183.513 55.6711C183.224 56.4026 182.635 56.9993 181.748 57.4613C180.879 57.9041 179.895 58.1254 178.795 58.1254ZM180.011 55.3246C181.053 55.3246 181.883 55.0455 182.5 54.4872C183.137 53.9097 183.456 53.1012 183.456 52.0617V51.2821L180.619 51.5419C179.538 51.6189 178.766 51.821 178.303 52.1483C177.859 52.4756 177.637 52.9182 177.637 53.4766C177.637 54.1118 177.84 54.5835 178.245 54.8914C178.67 55.1802 179.258 55.3246 180.011 55.3246Z" fill="#0F0F0F"/>
<path d="M161.637 57.7501H157.932V43.4569H161.376L161.666 45.2472C162.129 44.535 162.756 43.9864 163.547 43.6013C164.358 43.2162 165.245 43.0238 166.21 43.0238C168.005 43.0238 169.356 43.5532 170.263 44.6119C171.189 45.6514 171.652 47.0952 171.652 48.9432V57.7501H167.947V49.8094C167.947 48.693 167.677 47.8459 167.137 47.2684C166.616 46.6717 165.911 46.3733 165.024 46.3733C163.981 46.3733 163.152 46.7101 162.534 47.3839C161.936 48.0384 161.637 48.9143 161.637 50.0116V57.7501Z" fill="#0F0F0F"/>
<path d="M151.189 57.75V43.4569H154.894V57.75H151.189ZM153.042 40.7138C152.405 40.7138 151.874 40.5022 151.45 40.0785C151.025 39.6359 150.813 39.1162 150.813 38.5193C150.813 37.884 151.025 37.3548 151.45 36.9311C151.874 36.5077 152.405 36.2959 153.042 36.2959C153.64 36.2959 154.151 36.5077 154.576 36.9311C155.02 37.3548 155.242 37.884 155.242 38.5193C155.242 39.1162 155.02 39.6359 154.576 40.0785C154.151 40.5022 153.64 40.7138 153.042 40.7138Z" fill="#0F0F0F"/>
<path d="M140.109 58.1254C138.585 58.1254 137.379 57.7212 136.491 56.9127C135.623 56.085 135.189 54.9972 135.189 53.6498C135.189 52.3407 135.642 51.2917 136.549 50.5024C137.475 49.7131 138.797 49.2511 140.515 49.1164L144.741 48.7988V48.4812C144.741 47.8651 144.625 47.3647 144.393 46.9797C144.162 46.5946 143.834 46.3156 143.409 46.1423C142.985 45.9691 142.483 45.8824 141.904 45.8824C140.862 45.8824 140.071 46.0846 139.53 46.4888C138.99 46.8739 138.72 47.4417 138.72 48.1924H135.565C135.565 47.1337 135.835 46.2192 136.375 45.4493C136.916 44.6794 137.678 44.0825 138.662 43.6591C139.646 43.2356 140.785 43.0238 142.078 43.0238C143.39 43.0238 144.509 43.2548 145.435 43.7168C146.381 44.1788 147.105 44.8621 147.606 45.7669C148.108 46.6717 148.359 47.7979 148.359 49.1453V57.7501H145.117L144.828 55.6711C144.538 56.4026 143.949 56.9993 143.062 57.4613C142.193 57.9041 141.209 58.1254 140.109 58.1254ZM141.325 55.3246C142.367 55.3246 143.197 55.0455 143.814 54.4872C144.451 53.9097 144.77 53.1012 144.77 52.0617V51.2821L141.933 51.5419C140.852 51.6189 140.08 51.821 139.617 52.1483C139.173 52.4756 138.952 52.9182 138.952 53.4766C138.952 54.1118 139.154 54.5835 139.559 54.8914C139.984 55.1802 140.572 55.3246 141.325 55.3246Z" fill="#0F0F0F"/>
<path d="M124.612 43.4569H133.788V46.5465H124.612V43.4569ZM133.759 54.516L134.193 57.519C133.363 57.9041 132.427 58.0965 131.385 58.0965C130.459 58.0965 129.648 57.933 128.954 57.6056C128.278 57.2591 127.748 56.7297 127.362 56.0175C126.995 55.2859 126.812 54.3331 126.812 53.1589V39.0101H130.517V52.4659C130.517 53.3321 130.681 53.9385 131.009 54.285C131.356 54.6123 131.79 54.7759 132.311 54.7759C132.755 54.7759 133.238 54.6893 133.759 54.516Z" fill="#0F0F0F"/>
<path d="M112.055 53.3899H115.557C115.595 53.9866 115.827 54.4583 116.252 54.8048C116.676 55.1321 117.274 55.2957 118.046 55.2957C118.857 55.2957 119.465 55.1513 119.87 54.8626C120.294 54.5738 120.507 54.1887 120.507 53.7076C120.507 53.3802 120.4 53.0915 120.188 52.8413C119.976 52.5911 119.552 52.389 118.915 52.2349L116.339 51.6574C115.045 51.3687 114.081 50.9067 113.444 50.2714C112.807 49.617 112.489 48.7025 112.489 47.5283C112.489 46.5851 112.73 45.7766 113.212 45.1028C113.714 44.429 114.399 43.9189 115.268 43.5724C116.136 43.2067 117.12 43.0238 118.22 43.0238C119.3 43.0238 120.246 43.2162 121.057 43.6013C121.886 43.9864 122.533 44.5253 122.996 45.2183C123.459 45.9113 123.691 46.739 123.691 47.7016H120.159C120.159 47.1049 119.976 46.6332 119.609 46.2867C119.243 45.9402 118.731 45.7669 118.075 45.7669C117.419 45.7669 116.908 45.9113 116.541 46.2001C116.174 46.4888 115.991 46.8834 115.991 47.3839C115.991 48.1347 116.589 48.6544 117.786 48.9432L120.391 49.5207C121.587 49.7902 122.485 50.2329 123.083 50.8489C123.7 51.4456 124.009 52.2927 124.009 53.3899C124.009 54.3525 123.749 55.1899 123.228 55.9021C122.726 56.6142 122.012 57.1629 121.086 57.5479C120.179 57.933 119.127 58.1254 117.931 58.1254C116.136 58.1254 114.708 57.6923 113.647 56.8261C112.585 55.9406 112.055 54.7951 112.055 53.3899Z" fill="#0F0F0F"/>
<path d="M106.695 43.4569H110.4V57.75H106.956L106.666 55.902C106.242 56.5565 105.605 57.0956 104.756 57.519C103.926 57.9233 103.038 58.1254 102.093 58.1254C100.452 58.1254 99.1595 57.6154 98.214 56.595C97.2877 55.5555 96.8246 54.1504 96.8246 52.3793V43.4569H100.559V51.0799C100.559 52.389 100.809 53.3419 101.311 53.9385C101.813 54.5352 102.546 54.8337 103.511 54.8337C104.592 54.8337 105.393 54.516 105.914 53.8808C106.435 53.2455 106.695 52.2638 106.695 50.9355V43.4569Z" fill="#0F0F0F"/>
<path d="M79.6675 42.5617C79.6675 41.3104 79.9859 40.2132 80.6227 39.27C81.2788 38.3074 82.1761 37.5567 83.3147 37.0177C84.4725 36.4786 85.7943 36.2092 87.2803 36.2092C88.7276 36.2092 89.982 36.4691 91.0433 36.9889C92.1046 37.4892 92.9345 38.2111 93.5326 39.1545C94.1308 40.0785 94.4397 41.1852 94.4589 42.4751H90.5801C90.5415 41.5895 90.2231 40.9062 89.6249 40.425C89.046 39.9244 88.2452 39.6742 87.2224 39.6742C86.1225 39.6742 85.2349 39.9244 84.5594 40.425C83.9033 40.9062 83.5752 41.5703 83.5752 42.4174C83.5752 43.1487 83.7778 43.7262 84.1831 44.1499C84.5883 44.5733 85.2154 44.8717 86.0646 45.045L89.3934 45.7957C91.2072 46.1806 92.5582 46.8447 93.4458 47.7881C94.3528 48.7121 94.8062 49.9826 94.8062 51.5996C94.8062 52.9085 94.4781 54.054 93.8221 55.0357C93.1853 56.0175 92.2782 56.7777 91.1012 57.3169C89.9433 57.8558 88.5732 58.1254 86.9908 58.1254C85.4857 58.1254 84.1639 57.875 83.0252 57.3746C81.8866 56.8549 80.999 56.1233 80.3622 55.1801C79.7446 54.2367 79.4167 53.13 79.3781 51.8595H83.2858C83.2858 52.7257 83.6139 53.409 84.2699 53.9096C84.9454 54.41 85.8619 54.6604 87.0198 54.6604C88.2163 54.6604 89.1618 54.4197 89.8565 53.9385C90.5704 53.4379 90.9275 52.7738 90.9275 51.9461C90.9275 51.2531 90.7346 50.7045 90.3486 50.3002C89.982 49.8766 89.3836 49.5784 88.5539 49.4051L85.2251 48.6832C83.3918 48.2982 82.0024 47.5955 81.0569 46.5754C80.1306 45.5359 79.6675 44.1979 79.6675 42.5617Z" fill="#0F0F0F"/>
</g>
<defs>
<clipPath id="clip0_82_954">
<rect width="306" height="66" fill="white"/>
</clipPath>
</defs>
</svg>
