<?xml version="1.0" encoding="UTF-8"?>
<svg id="Layer_1" xmlns="http://www.w3.org/2000/svg" version="1.1" viewBox="0 0 188 184">
  <!-- Generator: Adobe Illustrator 30.1.0, SVG Export Plug-In . SVG Version: 2.1.1 Build 136)  -->
  <path d="M121.2,116.7c1.6,1.6,3.9,2.6,6.2,2.6h21.8c4.2,0,7.5,3.4,7.5,7.5v22.5c0,4.2-3.4,7.5-7.5,7.5h-22.5c-4.2,0-7.5-3.4-7.5-7.5v-21.8c0-2-1.1-4.8-2.6-6.2l-.3-.3c-1.6-1.6-3.9-2.6-6.2-2.6h-50.3c-1.7,0-3.3.7-4.5,1.9-1.1,1.1-1.8,2.7-1.8,4.3v9.8c0,4.2-3.4,7.5-7.5,7.5h-8.9c-4.1,0-7.5-3.4-7.5-7.5v-8.9c0-4.2,3.4-7.5,7.5-7.5h9.7c1.7,0,3.3-.7,4.5-1.9l.3-.3c1.1-1.1,1.8-2.7,1.8-4.3v-50.9c0-4.2,3.4-7.5,7.5-7.5h50.1c3.4,0,6.2-2.8,6.2-6.2v-18c0-4.2,3.4-7.5,7.5-7.5h17.6c4.2,0,7.5,3.4,7.5,7.5v17.6c0,4.1-3.4,7.5-7.5,7.5-.7,0-1.5,0-2.3,0h-15c-3.6,0-6.5,2.5-6.5,6.5v49.8c0,2.3.9,4.6,2.6,6.2Z" fill="#0f0f0f"/>
</svg>